<svg width="147" height="44" viewBox="0 0 147 44" fill="none" xmlns="http://www.w3.org/2000/svg">
<path d="M33.6484 35.6328H34.5308V42.7954H37.7638V43.592H33.6484V35.6328Z" fill="#282829"/>
<path d="M40.1865 35.6328H41.0689V43.5956H40.1865V35.6328Z" fill="#282829"/>
<path d="M43.9307 43.5956V35.6328H47.6316V36.4294H44.813V39.023H47.4244V39.8196H44.813V43.592H43.9307V43.5956Z" fill="#282829"/>
<path d="M49.707 43.5956V35.6328H53.658V36.4294H50.5894V39.0623H53.4651V39.8589H50.5894V42.7918H53.683V43.5884H49.707V43.5956Z" fill="#282829"/>
<path d="M60.0557 35.6328H60.938V43.5956H60.0557V35.6328Z" fill="#282829"/>
<path d="M63.832 35.6328H65.2788L67.8152 42.8489V35.6328H68.6976V43.5956H67.2508L64.7144 36.3473V43.5956H63.832V35.6328Z" fill="#282829"/>
<path d="M72.0552 41.0663V41.4592C72.0552 42.0129 72.1766 42.4095 72.4196 42.6452C72.6625 42.8846 73.0376 43.0025 73.5448 43.0025C74.045 43.0025 74.4236 42.8739 74.6737 42.6202C74.9273 42.363 75.0524 42.0165 75.0524 41.5842C75.0524 41.1841 74.9916 40.8912 74.8702 40.7019C74.7487 40.5161 74.5451 40.3661 74.2593 40.2518L72.616 39.6159C72.048 39.3908 71.6765 39.1193 71.4979 38.7978C71.3228 38.4763 71.2335 38.0834 71.2335 37.6154C71.2335 36.9795 71.4372 36.4544 71.8444 36.0436C72.2552 35.6327 72.7875 35.4255 73.4341 35.4255C74.1664 35.4255 74.7273 35.6077 75.1202 35.9685C75.5132 36.3293 75.7097 36.7687 75.7097 37.2939C75.7097 37.4153 75.7061 37.5368 75.6954 37.6618H74.788C74.7987 37.5797 74.8023 37.4832 74.8023 37.376C74.7952 37.0724 74.6808 36.8045 74.4558 36.5723C74.2307 36.3365 73.9342 36.2186 73.5627 36.2186C73.0661 36.2186 72.7018 36.3365 72.4731 36.5723C72.2481 36.8045 72.1373 37.1581 72.1373 37.6404C72.1373 38.1762 72.3981 38.5478 72.9268 38.7514L74.3736 39.3051C74.9916 39.548 75.4096 39.8195 75.6275 40.1196C75.849 40.4197 75.9597 40.8376 75.9597 41.3699C75.9597 42.0987 75.7525 42.6881 75.3381 43.1311C74.9238 43.5776 74.3093 43.7991 73.4984 43.7991C72.7768 43.7991 72.2052 43.6026 71.7837 43.2132C71.3621 42.8238 71.1514 42.213 71.1514 41.3842V41.0627H72.0552V41.0663Z" fill="#282829"/>
<path d="M78.3877 35.6328H79.2701V41.3593C79.2701 42.456 79.7738 43.0026 80.7776 43.0026C81.7814 43.0026 82.2851 42.4738 82.2851 41.4164V35.6328H83.1675V41.6986C83.1675 42.3881 82.9531 42.9097 82.5245 43.2705C82.0994 43.6277 81.5242 43.8063 80.799 43.8063C80.006 43.8063 79.4094 43.6206 79.0021 43.2526C78.5949 42.8847 78.3913 42.356 78.3913 41.6701V35.6328H78.3877Z" fill="#282829"/>
<path d="M91.0386 43.5955H89.9919C89.8955 43.2347 89.8276 42.9096 89.7954 42.6202C89.7597 42.3309 89.7454 42.0344 89.7454 41.7271C89.7454 41.1627 89.624 40.7555 89.3775 40.4983C89.131 40.241 88.7987 40.1089 88.3772 40.1089H86.8697V43.5919H85.9873V35.6292H88.0771C89.081 35.6292 89.7633 35.8185 90.1312 36.1936C90.5027 36.5651 90.6849 37.0867 90.6849 37.7547C90.6849 38.8621 90.1669 39.498 89.131 39.6623C89.674 39.7302 90.0419 39.8802 90.2348 40.1089C90.4313 40.3339 90.5385 40.6697 90.5563 41.1127C90.5706 41.5092 90.6278 42.0844 90.7278 42.8346C90.7885 43.1954 90.8957 43.3847 91.0422 43.4061V43.5955H91.0386ZM89.774 37.8511C89.774 36.9045 89.2167 36.4294 88.1057 36.4294H86.8661V39.3122H88.2522C89.2667 39.3122 89.774 38.8264 89.774 37.8511Z" fill="#282829"/>
<path d="M92.7363 43.5956L94.9762 35.6328H96.1479L98.3878 43.5956H97.4089L96.7981 41.3164H94.2903L93.7187 43.5956H92.7363ZM94.4975 40.5162H96.5802L95.537 36.2223L94.4975 40.5162Z" fill="#282829"/>
<path d="M100.405 35.6328H101.852L104.388 42.8489V35.6328H105.271V43.5956H103.824L101.288 36.3473V43.5956H100.405V35.6328Z" fill="#282829"/>
<path d="M111.601 40.7341H112.508L112.426 41.6844C112.365 42.3167 112.133 42.8275 111.736 43.2205C111.343 43.6099 110.829 43.8063 110.2 43.8063C109.318 43.8063 108.682 43.4955 108.289 42.8775C107.9 42.2559 107.703 41.3414 107.703 40.134V39.5481C107.703 38.1549 107.907 37.1189 108.314 36.4437C108.721 35.765 109.357 35.4292 110.214 35.4292C110.904 35.4292 111.461 35.6471 111.879 36.0829C112.297 36.5188 112.508 37.0832 112.508 37.7727V38.0013H111.601C111.558 36.8188 111.079 36.2294 110.164 36.2294C109.675 36.2294 109.293 36.4687 109.018 36.951C108.746 37.4333 108.607 38.4192 108.607 39.9125C108.607 40.9377 108.728 41.7129 108.975 42.2345C109.221 42.7525 109.611 43.0133 110.15 43.0133C110.958 43.0133 111.422 42.4631 111.536 41.3593L111.601 40.7341Z" fill="#282829"/>
<path d="M114.887 43.5956V35.6328H118.838V36.4294H115.769V39.0623H118.645V39.8589H115.769V42.7918H118.863V43.5884H114.887V43.5956Z" fill="#282829"/>
<path fill-rule="evenodd" clip-rule="evenodd" d="M36.003 16.4923C35.853 16.996 35.678 17.3961 35.4886 17.6997C35.2921 17.9891 35.0635 18.1856 34.8027 18.2963C34.5598 18.407 34.2562 18.4642 33.9025 18.4642C32.9558 18.4642 32.2521 18.0248 31.7912 17.146C31.5769 16.7102 31.4161 16.1922 31.3197 15.592C31.2268 14.9776 31.1768 14.1845 31.1768 13.22C31.1768 11.2945 31.409 9.87987 31.852 8.99035C32.3057 8.10084 33.0094 7.65787 33.9632 7.65787C34.2955 7.65429 34.5598 7.69359 34.7777 7.77218C34.9921 7.85078 35.185 8.00081 35.3564 8.22587C35.5279 8.45092 35.6887 8.75816 35.8351 9.16183C35.9995 9.56193 36.1709 10.0871 36.3567 10.7515C36.371 10.7944 36.3853 10.8408 36.396 10.9016C36.421 10.9551 36.4424 11.023 36.4639 11.1016H36.8533V7.95794C35.9566 7.50783 35.0707 7.27563 34.1704 7.27563C33.4202 7.27563 32.7451 7.41852 32.1413 7.69359C31.5376 7.95795 31.0196 8.34733 30.5909 8.86532C30.1623 9.37616 29.8229 9.9906 29.5907 10.7158C29.3621 11.441 29.2549 12.2519 29.2549 13.1414C29.2549 14.0095 29.3656 14.7954 29.5907 15.4956C29.8229 16.1993 30.1587 16.7995 30.5731 17.3032C31.0053 17.7854 31.5126 18.1784 32.1056 18.4499C32.7093 18.7178 33.3809 18.85 34.1204 18.85C35.0456 18.85 35.9673 18.6357 36.8818 18.2034V14.5596H36.4603C36.3067 15.3348 36.1531 15.985 36.003 16.4923ZM43.8657 12.9056C43.8657 12.034 43.6407 11.3838 43.187 10.9516C42.7512 10.5086 42.0974 10.28 41.2401 10.28C40.3291 10.28 39.4753 10.5086 38.6751 10.9516V13.5022H39.0931C39.211 13.1128 39.3182 12.777 39.4146 12.4877C39.5254 12.184 39.6325 11.9232 39.7433 11.6875C39.9219 11.2695 40.1041 10.998 40.2898 10.8658C40.4827 10.7337 40.7685 10.6658 41.1472 10.6658C42.0689 10.6658 42.5297 11.2588 42.5297 12.4484L42.5333 13.6201C42.3261 13.7058 42.1439 13.788 41.9796 13.8559C41.8331 13.9166 41.6795 13.9809 41.5294 14.0345C41.3758 14.0845 41.2186 14.1274 41.0472 14.1702C40.89 14.2095 40.6935 14.2417 40.4685 14.2917C39.9683 14.3989 39.6004 14.5096 39.3396 14.6061C39.0931 14.7061 38.8752 14.8347 38.6787 14.9883C38.4429 15.1812 38.2572 15.4277 38.1286 15.7242C38 16.0243 37.9357 16.3422 37.9357 16.6602C37.9357 17.3175 38.1357 17.8426 38.5322 18.2499C38.9395 18.65 39.4753 18.8464 40.1255 18.8464C41.3115 18.8464 42.1046 18.2927 42.5297 17.1674L42.5333 18.6357H44.6302V18.2534H43.8693V12.9056H43.8657ZM42.5297 15.1241C42.5297 16.0922 42.3511 16.8674 41.9974 17.4461C41.6366 18.0141 41.1579 18.2963 40.5613 18.2963C39.804 18.2963 39.4325 17.7212 39.4325 16.5959C39.4325 16.0136 39.5325 15.5813 39.7397 15.3062C39.9433 15.0276 40.3041 14.8168 40.8328 14.6704C41.0579 14.6025 41.2472 14.5453 41.4008 14.5096C41.5437 14.4632 41.6795 14.4167 41.8009 14.3703C41.9295 14.3274 42.0474 14.2774 42.1546 14.2381C42.2725 14.1953 42.3975 14.1381 42.5226 14.0702L42.5297 15.1241ZM51.7856 12.134C51.7856 11.5339 51.607 11.0766 51.2676 10.7622C50.9247 10.4407 50.4103 10.2764 49.7315 10.2764C49.2243 10.2764 48.8099 10.3979 48.4884 10.6443C48.1704 10.8873 47.8954 11.2909 47.6667 11.8446V10.4943H45.5698V10.8837H46.3271V18.2499H45.5698V18.6321H48.6313V18.2499H47.6631V13.4986C47.6631 12.6984 47.8168 12.0518 48.1276 11.566C48.4455 11.0766 48.8527 10.8301 49.3707 10.8301C49.7172 10.8301 49.9816 10.9516 50.1638 11.1945C50.346 11.4267 50.4389 11.7732 50.4389 12.2269V18.2463H49.4565V18.6285H52.5215V18.2463H51.7785V12.134H51.7856ZM59.2625 12.9056C59.2625 12.034 59.0339 11.3838 58.5838 10.9516C58.1408 10.5086 57.4871 10.28 56.6369 10.28C55.7188 10.28 54.8614 10.5086 54.0648 10.9516V13.5022H54.4935C54.6042 13.1128 54.7149 12.777 54.8078 12.4877C54.9221 12.184 55.0293 11.9232 55.1365 11.6875C55.3151 11.2695 55.4973 10.998 55.6831 10.8658C55.876 10.7337 56.1617 10.6658 56.5368 10.6658C57.4621 10.6658 57.9301 11.2588 57.9301 12.4484V13.6201C57.7229 13.7058 57.5407 13.788 57.3799 13.8559C57.2299 13.9166 57.0798 13.9809 56.9298 14.0345C56.7798 14.0845 56.6119 14.1274 56.444 14.1702C56.2868 14.2095 56.0939 14.2417 55.8652 14.2917C55.3687 14.3989 54.99 14.5096 54.7328 14.6061C54.4899 14.7061 54.2648 14.8347 54.0684 14.9883C53.8326 15.1812 53.654 15.4277 53.5254 15.7242C53.4003 16.0243 53.3324 16.3422 53.3324 16.6602C53.3324 17.3175 53.5289 17.8426 53.929 18.2499C54.3399 18.65 54.865 18.8464 55.5223 18.8464C56.7083 18.8464 57.5085 18.2927 57.9301 17.1674V18.6357H60.0234V18.2534H59.2697V12.9056H59.2625ZM57.9265 15.1241C57.9265 16.0922 57.7479 16.8674 57.3942 17.4461C57.0405 18.0141 56.5618 18.2963 55.9581 18.2963C55.2079 18.2963 54.8293 17.7212 54.8293 16.5959C54.8293 16.0136 54.9293 15.5813 55.1365 15.3062C55.3401 15.0276 55.7009 14.8168 56.2296 14.6704C56.4582 14.6025 56.6476 14.5453 56.7976 14.5096C56.9477 14.4632 57.0798 14.4167 57.2049 14.3703C57.3299 14.3274 57.4478 14.2774 57.555 14.2381C57.6728 14.1953 57.7943 14.1381 57.9265 14.0702V15.1241ZM65.0211 10.28C64.5782 10.28 64.2067 10.4014 63.903 10.6479C63.6136 10.8873 63.335 11.2802 63.0635 11.8482V10.4979H60.9737V10.8873H61.7274V18.2534H60.9737V18.6357H64.2317V18.2534H63.1635V14.356C63.1635 14.0095 63.1707 13.7094 63.1814 13.4558C63.2028 13.1986 63.2314 12.9699 63.26 12.777C63.2957 12.5591 63.3386 12.3698 63.3886 12.2019C63.4422 12.034 63.5065 11.8661 63.5851 11.6982C63.6887 11.4767 63.828 11.2909 64.003 11.1338C64.1745 10.9659 64.3245 10.8873 64.4531 10.8873C64.5174 10.8873 64.5746 10.8944 64.6139 10.9158C64.6603 10.9266 64.6961 10.9694 64.7282 11.0373C64.7782 11.0909 64.8139 11.1766 64.8604 11.2838C64.9104 11.3945 64.9747 11.5481 65.0354 11.7339C65.1533 12.034 65.2533 12.3305 65.3248 12.6234C65.4141 12.9128 65.4998 13.2522 65.5856 13.6415L66.025 13.638V10.58C65.8392 10.4693 65.6749 10.3907 65.5213 10.3478C65.3641 10.3014 65.1998 10.28 65.0211 10.28ZM72.5766 12.9056C72.5766 12.034 72.348 11.3838 71.8979 10.9516C71.4585 10.5086 70.8083 10.28 69.9474 10.28C69.0329 10.28 68.1755 10.5086 67.3789 10.9516V13.5022H67.7969C67.9219 13.1128 68.0291 12.777 68.1219 12.4877C68.2327 12.184 68.3363 11.9232 68.4434 11.6875C68.6292 11.2695 68.8114 10.998 68.99 10.8658C69.1829 10.7337 69.4687 10.6658 69.8474 10.6658C70.769 10.6658 71.237 11.2588 71.237 12.4484V13.6201C71.0263 13.7058 70.8441 13.788 70.6833 13.8559C70.5297 13.9166 70.3797 13.9809 70.2296 14.0345C70.0832 14.0845 69.9188 14.1274 69.7473 14.1702C69.5866 14.2095 69.3901 14.2417 69.1686 14.2917C68.6721 14.3989 68.297 14.5096 68.0362 14.6061C67.7933 14.7061 67.5718 14.8347 67.3753 14.9883C67.1395 15.1812 66.9574 15.4277 66.8323 15.7242C66.6966 16.0243 66.6394 16.3422 66.6394 16.6602C66.6394 17.3175 66.8359 17.8426 67.2324 18.2499C67.6432 18.65 68.1719 18.8464 68.8328 18.8464C70.0188 18.8464 70.8155 18.2927 71.2406 17.1674V18.6357H73.334V18.2534H72.5766V12.9056ZM71.2406 15.1241C71.2406 16.0922 71.0584 16.8674 70.7083 17.4461C70.3511 18.0141 69.876 18.2963 69.2687 18.2963C68.5185 18.2963 68.1434 17.7212 68.1434 16.5959C68.1434 16.0136 68.2398 15.5813 68.447 15.3062C68.6506 15.0276 69.0186 14.8168 69.5437 14.6704C69.7724 14.6025 69.9581 14.5453 70.1046 14.5096C70.2546 14.4632 70.3868 14.4167 70.5118 14.3703C70.6476 14.3274 70.7619 14.2774 70.8691 14.2381C70.987 14.1953 71.1156 14.1381 71.2442 14.0702V15.1241H71.2406Z" fill="#282829"/>
<path fill-rule="evenodd" clip-rule="evenodd" d="M18.1759 0.598893L26.2173 15.9492C27.1854 17.6032 26.178 19.3037 24.3418 19.0072C23.7666 18.9107 20.0371 18.3856 15.3145 17.7283L16.6612 15.8492L23.0522 16.5744C23.5809 16.6351 23.8274 16.4779 23.5201 15.8849C23.5201 15.8849 17.5079 3.33887 17.4472 3.19598C17.2471 2.80302 17.0185 2.93163 16.8434 3.27815C16.8434 3.27815 10.9276 14.3917 10.8526 14.5382C10.6383 14.9704 10.7205 15.1883 11.3528 15.2455L13.6748 15.5063L12.3387 17.221L9.3058 16.7209C8.54847 16.6208 8.30198 16.1243 8.71637 15.3205C9.02716 14.7025 16.0861 1.37052 16.0861 1.37052C16.2254 1.11688 16.3433 0.9204 16.4862 0.663192C16.9077 -0.101289 17.6687 -0.308482 18.1759 0.598893Z" fill="#00AEEF"/>
<path fill-rule="evenodd" clip-rule="evenodd" d="M0.732488 12.3805L11.2816 10.4514L10.3814 12.1483L3.09381 13.4201C2.72228 13.4986 2.75801 13.6773 2.99021 13.838C2.99021 13.838 9.34182 18.3892 9.96341 18.8071C10.46 19.1537 10.7243 19.2965 11.1387 18.7428C11.1387 18.7428 16.3007 12.184 16.5722 11.7446C16.9616 11.1945 17.1367 10.9766 16.5079 11.098L12.9285 11.7125L13.8465 9.99776L18.6513 9.09396C19.7445 8.90105 20.1803 9.6941 19.6445 10.53C19.1836 11.2123 11.571 21.8329 11.571 21.8329C11.0744 22.576 10.7065 22.5474 10.1277 22.0223C9.41327 21.4078 0.407404 13.6701 0.407404 13.6701C-0.185604 13.1593 0.000158846 12.5198 0.732488 12.3805Z" fill="#FFC20E"/>
<path d="M120.024 15.1385H116.302V18.8109H114.434V10.2158H116.302V13.7346H120.024V10.2158H121.893V18.8109H120.024V15.1385Z" fill="#282829"/>
<path d="M126.358 18.968C124.504 18.968 122.982 18.2321 122.946 16.1744H124.815C124.84 17.0889 125.372 17.6355 126.397 17.6355C127.158 17.6355 128.015 17.2533 128.015 16.3995C128.015 15.735 127.433 15.5207 126.469 15.2456L125.851 15.067C124.497 14.674 123.15 14.1525 123.15 12.6056C123.15 10.6909 124.933 10.0479 126.561 10.0479C128.237 10.0479 129.677 10.6302 129.687 12.5342H127.819C127.748 11.7483 127.297 11.2982 126.415 11.2982C125.726 11.2982 125.036 11.6661 125.036 12.427C125.036 13.0558 125.608 13.2487 126.819 13.6273L127.533 13.8524C129.009 14.3168 129.934 14.8276 129.934 16.253C129.934 18.2178 128.044 18.968 126.358 18.968Z" fill="#282829"/>
<path d="M130.987 10.2158H133.97C134.91 10.2158 135.288 10.2408 135.66 10.323C136.707 10.5623 137.493 11.2375 137.493 12.3914C137.493 13.4988 136.792 14.0668 135.781 14.3312C136.946 14.5455 137.803 15.1385 137.803 16.4138C137.803 18.3643 135.878 18.8144 134.367 18.8144H130.991V10.2158H130.987ZM133.984 13.7953C134.806 13.7953 135.638 13.6274 135.638 12.6307C135.638 11.7376 134.853 11.5019 134.106 11.5019H132.798V13.7953H133.984ZM134.16 17.5284C135.028 17.5284 135.885 17.3248 135.885 16.2781C135.885 15.2564 135.149 15.017 134.267 15.017H132.791V17.5248H134.16V17.5284Z" fill="#282829"/>
<path d="M142.665 18.9681C139.893 18.9681 138.646 17.1962 138.646 14.5812C138.646 11.9877 140.025 10.0515 142.762 10.0515C144.473 10.0515 146.138 10.8124 146.188 12.7629H144.262C144.166 11.9056 143.598 11.4554 142.765 11.4554C141.09 11.4554 140.579 13.263 140.579 14.642C140.579 16.0102 141.09 17.6034 142.708 17.6034C143.551 17.6034 144.169 17.1533 144.301 16.2852H146.241C146.016 18.2322 144.448 18.9681 142.665 18.9681Z" fill="#282829"/>
<path d="M103.314 6.4397H87.1738V22.5795H103.314V6.4397Z" fill="white"/>
<path d="M103.312 22.5795L111.382 14.5096L103.312 6.4397V22.5795Z" fill="#ED1C24"/>
<path d="M87.1734 22.5795L79.1035 14.5096L87.1734 6.4397V22.5795Z" fill="#ED1C24"/>
<path d="M103.314 6.4397L95.2437 14.5096L87.1738 6.4397H103.314Z" fill="#ED1C24"/>
<path d="M87.1738 22.5794L95.2437 14.5095L103.314 22.5794H87.1738Z" fill="#ED1C24"/>
<path d="M48.7446 27.5129H0V28.506H48.7446V27.5129Z" fill="#00AEEF"/>
<path d="M97.4897 27.5129H48.7451V28.506H97.4897V27.5129Z" fill="#FFC20E"/>
<path d="M146.23 27.5129H97.4854V28.506H146.23V27.5129Z" fill="#ED1C24"/>
</svg>
