<svg width="154" height="47" viewBox="0 0 154 47" fill="none" xmlns="http://www.w3.org/2000/svg">
<path d="M51.1944 28.9001H0V29.9409H51.1944V28.9001Z" fill="white"/>
<path d="M35.3413 37.4263H36.269V44.9493H39.6666V45.7865H35.3451V37.4263H35.3413Z" fill="white"/>
<path d="M42.2043 37.4263H43.1282V45.7902H42.2043V37.4263Z" fill="white"/>
<path d="M46.1414 45.7902V37.4263H50.0292V38.2634H47.069V40.986H49.8143V41.8232H47.069V45.7865H46.1414V45.7902Z" fill="white"/>
<path d="M52.2051 45.7902V37.4263H56.3531V38.2634H53.129V41.0275H56.1495V41.8647H53.129V44.9455H56.3795V45.7827H52.2051V45.7902Z" fill="white"/>
<path d="M63.0767 37.4263H64.0005V45.7902H63.0767V37.4263Z" fill="white"/>
<path d="M67.0438 37.4263H68.5635L71.2258 45.0059V37.4263H72.1497V45.7902H70.63L67.9677 38.1805V45.7902H67.04V37.4263H67.0438Z" fill="white"/>
<path d="M75.6791 43.1317V43.5465C75.6791 44.1272 75.8073 44.542 76.06 44.7947C76.3126 45.0436 76.7086 45.1718 77.2403 45.1718C77.7645 45.1718 78.1642 45.036 78.4281 44.7683C78.6921 44.4968 78.8241 44.1348 78.8241 43.6785C78.8241 43.2561 78.76 42.9507 78.6355 42.7508C78.5073 42.5547 78.2924 42.3963 77.9945 42.2757L76.2674 41.6045C75.6716 41.3669 75.2794 41.0803 75.0908 40.7447C74.9061 40.4091 74.8118 39.9943 74.8118 39.504C74.8118 38.8366 75.0268 38.286 75.4529 37.8561C75.8865 37.4225 76.4409 37.2075 77.1234 37.2075C77.8927 37.2075 78.4809 37.3961 78.892 37.7807C79.3068 38.1578 79.5142 38.6216 79.5142 39.176C79.5142 39.3042 79.5104 39.4324 79.4991 39.5606H78.545C78.5564 39.4739 78.5601 39.3758 78.5601 39.2627C78.5526 38.9422 78.4319 38.6631 78.1943 38.418C77.9568 38.1729 77.6476 38.0484 77.2591 38.0484C76.735 38.0484 76.3541 38.1729 76.1165 38.418C75.879 38.6593 75.7621 39.0364 75.7621 39.538C75.7621 40.0998 76.0374 40.4882 76.5879 40.7032L78.1076 41.2877C78.7562 41.5403 79.1974 41.8269 79.4237 42.1437C79.6575 42.4605 79.7706 42.8979 79.7706 43.456C79.7706 44.2215 79.5519 44.8399 79.1182 45.3075C78.6808 45.7751 78.0397 46.0089 77.1837 46.0089C76.4258 46.0089 75.8262 45.8053 75.3812 45.3943C74.94 44.9832 74.7175 44.3422 74.7175 43.4711V43.1317H75.6791Z" fill="white"/>
<path d="M82.3312 37.4263H83.255V43.4409C83.255 44.5911 83.783 45.168 84.8388 45.168C85.8947 45.168 86.4227 44.6137 86.4227 43.5013V37.4263H87.3465V43.7954C87.3465 44.5194 87.1203 45.0662 86.6715 45.4433C86.2266 45.8166 85.6194 46.0052 84.8577 46.0052C84.0281 46.0052 83.3983 45.8129 82.9685 45.4207C82.5386 45.0323 82.3274 44.478 82.3274 43.7615V37.4263H82.3312Z" fill="white"/>
<path d="M95.6199 45.7901H94.5188C94.417 45.413 94.3491 45.0699 94.3114 44.7682C94.2737 44.4628 94.2586 44.1498 94.2586 43.833C94.2586 43.241 94.1304 42.8111 93.874 42.5433C93.6176 42.2718 93.2669 42.1361 92.8219 42.1361H91.2381V45.7939H90.3142V37.4299H92.5089C93.561 37.4299 94.2813 37.626 94.6659 38.022C95.0543 38.4142 95.2504 38.9609 95.2504 39.6623C95.2504 40.8238 94.7074 41.4913 93.6176 41.6647C94.187 41.7364 94.5754 41.8947 94.779 42.1323C94.9864 42.3699 95.0996 42.7206 95.1146 43.1882C95.1297 43.6067 95.1901 44.2063 95.2956 44.9945C95.3598 45.3716 95.4729 45.5714 95.6275 45.594V45.7901H95.6199ZM94.2888 39.7566C94.2888 38.7611 93.7043 38.2633 92.5353 38.2633H91.2343V41.2914H92.6899C93.7571 41.2914 94.2888 40.7823 94.2888 39.7566Z" fill="white"/>
<path d="M97.3999 45.7902L99.753 37.4263H100.982L103.335 45.7902H102.306L101.665 43.3957H99.029L98.4294 45.7902H97.3999ZM99.2477 42.5548H101.435L100.341 38.0447L99.2477 42.5548Z" fill="white"/>
<path d="M105.454 37.4263H106.974L109.636 45.0059V37.4263H110.56V45.7902H109.041L106.378 38.1805V45.7902H105.451V37.4263H105.454Z" fill="white"/>
<path d="M117.212 42.7848H118.166L118.08 43.7803C118.016 44.444 117.774 44.9832 117.356 45.3905C116.941 45.8015 116.405 46.0051 115.745 46.0051C114.822 46.0051 114.15 45.6808 113.735 45.0322C113.324 44.3799 113.121 43.4183 113.121 42.1512V41.5366C113.121 40.0734 113.336 38.9874 113.762 38.2747C114.192 37.562 114.855 37.2075 115.761 37.2075C116.488 37.2075 117.069 37.4376 117.51 37.8938C117.948 38.3501 118.17 38.9422 118.17 39.67V39.9113H117.216C117.171 38.6707 116.669 38.0484 115.708 38.0484C115.191 38.0484 114.791 38.3011 114.505 38.8064C114.218 39.3117 114.075 40.3487 114.075 41.9137C114.075 42.9922 114.203 43.8067 114.46 44.3535C114.716 44.8965 115.131 45.1718 115.696 45.1718C116.545 45.1718 117.031 44.591 117.152 43.4334L117.212 42.7848Z" fill="white"/>
<path d="M120.663 45.7902V37.4263H124.811V38.2634H121.587V41.0275H124.607V41.8647H121.587V44.9455H124.837V45.7827H120.663V45.7902Z" fill="white"/>
<path fill-rule="evenodd" clip-rule="evenodd" d="M37.8115 17.3235C37.6568 17.8552 37.4721 18.2738 37.2722 18.5905C37.0648 18.8922 36.8272 19.0996 36.552 19.2203C36.2955 19.3372 35.9788 19.3975 35.6054 19.3975C34.6099 19.3975 33.8708 18.9375 33.3881 18.0136C33.1619 17.5573 32.9959 17.0143 32.8941 16.3807C32.7961 15.7359 32.7433 14.9025 32.7433 13.8881C32.7433 11.8631 32.9846 10.3812 33.4522 9.44597C33.9311 8.51077 34.6703 8.04695 35.6696 8.04695C36.0165 8.04318 36.2955 8.08465 36.5256 8.16761C36.7518 8.25057 36.9554 8.40895 37.1327 8.64275C37.3099 8.87655 37.4796 9.20085 37.638 9.62697C37.8077 10.0455 37.9925 10.5999 38.1885 11.2975C38.2036 11.3428 38.2187 11.3918 38.23 11.4559C38.2564 11.5124 38.279 11.5841 38.2979 11.6671H38.7089V8.36371C37.77 7.88857 36.8348 7.64722 35.892 7.64722C35.1039 7.64722 34.395 7.79429 33.7614 8.08465C33.1279 8.3637 32.5849 8.77474 32.1324 9.31398C31.6837 9.84946 31.3254 10.4981 31.0803 11.2598C30.8427 12.0215 30.7258 12.8738 30.7258 13.809C30.7258 14.7215 30.8427 15.5436 31.0803 16.2789C31.3254 17.018 31.6761 17.6478 32.1135 18.1757C32.5661 18.6848 33.1015 19.0921 33.7237 19.3787C34.361 19.6615 35.0624 19.801 35.8392 19.801C36.8084 19.801 37.7775 19.5785 38.7391 19.1222V15.2947H38.2979C38.1357 16.1092 37.9698 16.7918 37.8115 17.3235ZM46.0736 13.5563C46.0736 12.64 45.836 11.9574 45.3571 11.5049C44.9008 11.0373 44.2145 10.7997 43.3133 10.7997C42.3592 10.7997 41.458 11.0373 40.6208 11.5049V14.1823H41.062C41.1865 13.775 41.2996 13.4205 41.3976 13.1189C41.5107 12.7983 41.6239 12.5231 41.7408 12.278C41.9293 11.8405 42.1179 11.5539 42.314 11.4144C42.5176 11.2749 42.8155 11.207 43.2152 11.207C44.1806 11.207 44.667 11.833 44.667 13.0812L44.6708 14.3105C44.4559 14.401 44.2635 14.484 44.0901 14.5594C43.9355 14.6235 43.7771 14.6876 43.6187 14.7479C43.4603 14.8007 43.2944 14.846 43.1096 14.8912C42.9437 14.9327 42.7363 14.9666 42.5025 15.0194C41.9784 15.1326 41.5899 15.2495 41.3147 15.3513C41.0582 15.4569 40.8282 15.5888 40.6208 15.7548C40.3757 15.9546 40.1796 16.2148 40.0438 16.5278C39.9081 16.8446 39.8402 17.1764 39.8402 17.512C39.8402 18.2021 40.0476 18.7565 40.4662 19.1826C40.8923 19.6011 41.458 19.8085 42.1405 19.8085C43.3887 19.8085 44.2221 19.2278 44.667 18.0437L44.6708 19.5861H46.873V19.1826H46.0736V13.5563ZM44.6708 15.8867C44.6708 16.9049 44.4823 17.7157 44.1127 18.3266C43.7356 18.9224 43.2341 19.2203 42.6043 19.2203C41.8124 19.2203 41.4165 18.6169 41.4165 17.4366C41.4165 16.8257 41.5221 16.3732 41.7408 16.0828C41.9519 15.7925 42.3328 15.57 42.8909 15.4154C43.1247 15.3475 43.3246 15.2834 43.4867 15.2457C43.6376 15.1967 43.7809 15.1476 43.9091 15.0986C44.0448 15.0534 44.1693 15.0006 44.2824 14.9591C44.4031 14.9138 44.5351 14.8535 44.6708 14.7819V15.8867ZM54.3885 12.7456C54.3885 12.1158 54.2 11.6369 53.8455 11.305C53.4835 10.9657 52.9443 10.796 52.2353 10.796C51.7036 10.796 51.27 10.9242 50.9306 11.1844C50.5987 11.4408 50.3084 11.8631 50.0708 12.4439V11.0222H47.8686V11.4333H48.6605V19.1675H47.8686V19.571H51.0852V19.1675H50.0708V14.1785C50.0708 13.3376 50.233 12.6588 50.5573 12.1497C50.8891 11.6369 51.319 11.3767 51.8658 11.3767C52.2316 11.3767 52.5068 11.5049 52.6954 11.7613C52.8877 12.0064 52.982 12.3685 52.982 12.8474V19.1713H51.9525V19.5747H55.1691V19.1713H54.3885V12.7456ZM62.2434 13.5563C62.2434 12.64 62.0021 11.9574 61.5307 11.5049C61.0669 11.0373 60.3806 10.7997 59.4831 10.7997C58.5177 10.7997 57.6203 11.0373 56.7793 11.5049V14.1823H57.2281C57.345 13.775 57.4581 13.4205 57.5599 13.1189C57.6768 12.7983 57.7937 12.5231 57.9068 12.278C58.0954 11.8405 58.2877 11.5539 58.48 11.4144C58.6837 11.2749 58.9853 11.207 59.3737 11.207C60.3429 11.207 60.8369 11.833 60.8369 13.0812V14.3105C60.6219 14.401 60.4296 14.484 60.2561 14.5594C60.0978 14.6235 59.9432 14.6876 59.7848 14.7479C59.6264 14.8007 59.4529 14.846 59.2719 14.8912C59.106 14.9327 58.9024 14.9666 58.6648 15.0194C58.1406 15.1326 57.7447 15.2495 57.477 15.3513C57.2205 15.4569 56.9867 15.5888 56.7793 15.7548C56.5304 15.9546 56.3419 16.2148 56.2099 16.5278C56.0779 16.8446 56.0063 17.1764 56.0063 17.512C56.0063 18.2021 56.2137 18.7565 56.6323 19.1826C57.0622 19.6011 57.6165 19.8085 58.3066 19.8085C59.551 19.8085 60.3919 19.2278 60.8369 18.0437V19.5861H63.0353V19.1826H62.2434V13.5563ZM60.8407 15.8867C60.8407 16.9049 60.6521 17.7157 60.2788 18.3266C59.9054 18.9224 59.4039 19.2203 58.7704 19.2203C57.9823 19.2203 57.5863 18.6169 57.5863 17.4366C57.5863 16.8257 57.6919 16.3732 57.9106 16.0828C58.1218 15.7925 58.5027 15.57 59.057 15.4154C59.2983 15.3475 59.4944 15.2834 59.6528 15.2457C59.8074 15.1967 59.9507 15.1476 60.0789 15.0986C60.2109 15.0534 60.3316 15.0006 60.4485 14.9591C60.5691 14.9138 60.7011 14.8535 60.8369 14.7819V15.8867H60.8407ZM68.2883 10.796C67.8207 10.796 67.4323 10.9242 67.1117 11.1844C66.8101 11.4333 66.5159 11.8481 66.2293 12.4439V11.0222H64.0346V11.4333H64.8265V19.1675H64.0346V19.571H67.4549V19.1675H66.3349V15.076C66.3349 14.714 66.3425 14.3972 66.3538 14.1295C66.3764 13.858 66.4028 13.6204 66.4367 13.4168C66.4745 13.1868 66.5197 12.9907 66.5725 12.8134C66.6291 12.6362 66.6969 12.4627 66.7799 12.2855C66.8893 12.0517 67.0363 11.8594 67.2173 11.6897C67.3946 11.5124 67.5529 11.4333 67.6925 11.4333C67.7603 11.4333 67.8207 11.4408 67.8584 11.4597C67.9074 11.471 67.9451 11.5162 67.9753 11.5879C68.0281 11.6407 68.0658 11.7349 68.111 11.8481C68.1638 11.965 68.2317 12.1233 68.2958 12.3232C68.4203 12.64 68.5258 12.9492 68.6013 13.2546C68.6918 13.5601 68.786 13.9145 68.8728 14.3256L69.3328 14.3218V11.109C69.1367 10.9921 68.9671 10.9091 68.8049 10.8638C68.6503 10.8224 68.4806 10.796 68.2883 10.796ZM76.2261 13.5563C76.2261 12.64 75.9848 11.9574 75.5134 11.5049C75.0496 11.0373 74.3671 10.7997 73.4658 10.7997C72.5042 10.7997 71.6029 11.0373 70.7658 11.5049V14.1823H71.207C71.339 13.775 71.4521 13.4205 71.5464 13.1189C71.6633 12.7983 71.7726 12.5231 71.8858 12.278C72.0781 11.8405 72.2742 11.5539 72.4627 11.4144C72.6663 11.2749 72.968 11.207 73.364 11.207C74.3331 11.207 74.8233 11.833 74.8233 13.0812V14.3105C74.6046 14.401 74.4085 14.484 74.2426 14.5594C74.0805 14.6235 73.9259 14.6876 73.7675 14.7479C73.6129 14.8007 73.4432 14.846 73.2622 14.8912C73.0925 14.9327 72.8888 14.9666 72.6513 15.0194C72.1309 15.1326 71.7349 15.2495 71.4596 15.3513C71.207 15.4569 70.9732 15.5888 70.7658 15.7548C70.5169 15.9546 70.3246 16.2148 70.1964 16.5278C70.0531 16.8446 69.9927 17.1764 69.9927 17.512C69.9927 18.2021 70.2001 18.7565 70.615 19.1826C71.0448 19.6011 71.6029 19.8085 72.293 19.8085C73.5374 19.8085 74.3746 19.2278 74.8196 18.0437V19.5861H77.0218V19.1826H76.2261V13.5563ZM74.8233 15.8867C74.8233 16.9049 74.6348 17.7157 74.2652 18.3266C73.8881 18.9224 73.3904 19.2203 72.7531 19.2203C71.965 19.2203 71.569 18.6169 71.569 17.4366C71.569 16.8257 71.6708 16.3732 71.8858 16.0828C72.1007 15.7925 72.4853 15.57 73.0397 15.4154C73.2772 15.3475 73.4733 15.2834 73.6279 15.2457C73.7863 15.1967 73.9258 15.1476 74.0541 15.0986C74.1936 15.0534 74.318 15.0006 74.4274 14.9591C74.5518 14.9138 74.6838 14.8535 74.8196 14.7819V15.8867H74.8233Z" fill="white"/>
<path fill-rule="evenodd" clip-rule="evenodd" d="M19.0924 0.629379L27.5393 16.754C28.5537 18.4924 27.4979 20.2798 25.5709 19.9668C24.9676 19.865 21.0495 19.3144 16.0907 18.6206L17.5049 16.6484L24.2171 17.4101C24.7752 17.4742 25.0317 17.3083 24.7111 16.6823C24.7111 16.6823 18.3948 3.50662 18.3307 3.35578C18.1195 2.94475 17.8819 3.07672 17.6972 3.44251C17.6972 3.44251 11.4826 15.1174 11.4034 15.2682C11.1772 15.7245 11.2639 15.9508 11.9276 16.0111L14.3674 16.2864L12.9646 18.0889L9.77817 17.5647C8.9825 17.4629 8.7223 16.9387 9.15973 16.0941C9.48781 15.4455 16.8977 1.44013 16.8977 1.44013C17.0448 1.17239 17.1655 0.968762 17.3163 0.697254C17.7575 -0.105959 18.5569 -0.324671 19.0924 0.629379Z" fill="white"/>
<path fill-rule="evenodd" clip-rule="evenodd" d="M0.769424 13.0018L11.8523 10.973L10.9095 12.7529L3.25825 14.0878C2.86985 14.1708 2.90378 14.3555 3.14889 14.5252C3.14889 14.5252 9.81971 19.3068 10.4721 19.7442C10.9962 20.11 11.2715 20.2571 11.7052 19.6764C11.7052 19.6764 17.124 12.7868 17.4106 12.3268C17.8217 11.7498 18.0027 11.5198 17.3428 11.648L13.5831 12.2928L14.5485 10.4903L19.594 9.54003C20.7442 9.3364 21.2004 10.1698 20.6386 11.0484C20.1559 11.7649 12.1577 22.9194 12.1577 22.9194C11.6373 23.6999 11.2489 23.6698 10.6418 23.1192C9.89136 22.4744 0.430041 14.3442 0.430041 14.3442C-0.192166 13.8201 0.000149809 13.1488 0.769424 13.0018Z" fill="white"/>
<path d="M126.06 15.9017H122.149V19.7593H120.188V10.7317H122.149V14.4272H126.06V10.7317H128.02V19.7593H126.06V15.9017Z" fill="white"/>
<path d="M132.712 19.9214C130.762 19.9214 129.163 19.1483 129.129 16.9876H131.09C131.116 17.9492 131.678 18.5224 132.753 18.5224C133.552 18.5224 134.45 18.1226 134.45 17.2252C134.45 16.5275 133.839 16.3013 132.825 16.0147L132.176 15.8261C130.754 15.4151 129.34 14.8645 129.34 13.243C129.34 11.2331 131.214 10.5581 132.923 10.5581C134.684 10.5581 136.196 11.169 136.207 13.1676H134.246C134.171 12.3418 133.696 11.8704 132.772 11.8704C132.048 11.8704 131.324 12.2588 131.324 13.0582C131.324 13.7219 131.923 13.918 133.198 14.3177L133.948 14.5553C135.498 15.0418 136.471 15.5772 136.471 17.0781C136.471 19.137 134.484 19.9214 132.712 19.9214Z" fill="white"/>
<path d="M137.576 10.7317H140.71C141.698 10.7317 142.097 10.7581 142.482 10.8448C143.579 11.0937 144.405 11.8064 144.405 13.0169C144.405 14.1783 143.67 14.7779 142.606 15.0532C143.832 15.2795 144.73 15.9017 144.73 17.2403C144.73 19.288 142.705 19.7631 141.121 19.7631H137.572V10.7317H137.576ZM140.721 14.4913C141.585 14.4913 142.456 14.3179 142.456 13.2658C142.456 12.3306 141.63 12.0779 140.845 12.0779H139.473V14.4876H140.721V14.4913ZM140.91 18.4131C141.822 18.4131 142.72 18.2019 142.72 17.1008C142.72 16.0261 141.947 15.7772 141.023 15.7772H139.473V18.4131H140.91Z" fill="white"/>
<path d="M149.839 19.9215C146.928 19.9215 145.62 18.0624 145.62 15.3134C145.62 12.5908 147.068 10.5544 149.941 10.5544C151.74 10.5544 153.49 11.3539 153.539 13.4015H151.514C151.412 12.504 150.816 12.0289 149.941 12.0289C148.18 12.0289 147.645 13.9257 147.645 15.3775C147.645 16.8142 148.18 18.4885 149.881 18.4885C150.767 18.4885 151.416 18.0134 151.555 17.1008H153.591C153.361 19.1484 151.713 19.9215 149.839 19.9215Z" fill="white"/>
<path d="M108.51 6.76465H91.5591V23.7151H108.51V6.76465Z" fill="#323232"/>
<path d="M108.509 23.7151L116.986 15.2418L108.509 6.76465V23.7151Z" fill="white"/>
<path d="M91.5589 23.7151L83.0818 15.2418L91.5589 6.76465V23.7151Z" fill="white"/>
<path d="M108.51 6.76465L100.032 15.2418L91.5591 6.76465H108.51Z" fill="white"/>
<path d="M91.5591 23.715L100.032 15.2417L108.51 23.715H91.5591Z" fill="white"/>
<path d="M102.389 28.9001H51.1943V29.9409H102.389V28.9001Z" fill="white"/>
<path d="M153.587 28.9001H102.393V29.9409H153.587V28.9001Z" fill="white"/>
</svg>
