<svg width="154" height="47" viewBox="0 0 154 47" fill="none" xmlns="http://www.w3.org/2000/svg">
<path d="M51.1944 28.9004H0V29.9412H51.1944V28.9004Z" fill="white"/>
<path d="M35.3413 37.4263H36.269V44.9493H39.6666V45.7865H35.3451V37.4263H35.3413Z" fill="white"/>
<path d="M42.2043 37.4263H43.1282V45.7902H42.2043V37.4263Z" fill="white"/>
<path d="M46.1414 45.7902V37.4263H50.0292V38.2634H47.069V40.986H49.8143V41.8232H47.069V45.7865H46.1414V45.7902Z" fill="white"/>
<path d="M52.2051 45.7902V37.4263H56.3531V38.2634H53.129V41.0275H56.1495V41.8647H53.129V44.9455H56.3795V45.7827H52.2051V45.7902Z" fill="white"/>
<path d="M63.0767 37.4263H64.0005V45.7902H63.0767V37.4263Z" fill="white"/>
<path d="M67.0438 37.4263H68.5635L71.2258 45.0059V37.4263H72.1497V45.7902H70.63L67.9677 38.1805V45.7902H67.04V37.4263H67.0438Z" fill="white"/>
<path d="M75.6791 43.1317V43.5465C75.6791 44.1272 75.8073 44.542 76.06 44.7947C76.3126 45.0436 76.7086 45.1718 77.2403 45.1718C77.7645 45.1718 78.1642 45.036 78.4281 44.7683C78.6921 44.4968 78.8241 44.1348 78.8241 43.6785C78.8241 43.2561 78.76 42.9507 78.6355 42.7508C78.5073 42.5547 78.2924 42.3963 77.9945 42.2757L76.2674 41.6045C75.6716 41.3669 75.2794 41.0803 75.0908 40.7447C74.9061 40.4091 74.8118 39.9943 74.8118 39.504C74.8118 38.8366 75.0268 38.286 75.4529 37.8561C75.8865 37.4225 76.4409 37.2075 77.1234 37.2075C77.8927 37.2075 78.4809 37.3961 78.892 37.7807C79.3068 38.1578 79.5142 38.6216 79.5142 39.176C79.5142 39.3042 79.5104 39.4324 79.4991 39.5606H78.545C78.5564 39.4739 78.5601 39.3758 78.5601 39.2627C78.5526 38.9422 78.4319 38.6631 78.1943 38.418C77.9568 38.1729 77.6476 38.0484 77.2591 38.0484C76.735 38.0484 76.3541 38.1729 76.1165 38.418C75.879 38.6593 75.7621 39.0364 75.7621 39.538C75.7621 40.0998 76.0374 40.4882 76.5879 40.7032L78.1076 41.2877C78.7562 41.5403 79.1974 41.8269 79.4237 42.1437C79.6575 42.4605 79.7706 42.8979 79.7706 43.456C79.7706 44.2215 79.5519 44.8399 79.1182 45.3075C78.6808 45.7751 78.0397 46.0089 77.1837 46.0089C76.4258 46.0089 75.8262 45.8053 75.3812 45.3943C74.94 44.9832 74.7175 44.3422 74.7175 43.4711V43.1317H75.6791Z" fill="white"/>
<path d="M82.3312 37.4263H83.255V43.4409C83.255 44.5911 83.783 45.168 84.8388 45.168C85.8947 45.168 86.4227 44.6137 86.4227 43.5013V37.4263H87.3465V43.7954C87.3465 44.5194 87.1203 45.0662 86.6715 45.4433C86.2266 45.8166 85.6194 46.0052 84.8577 46.0052C84.0281 46.0052 83.3983 45.8129 82.9685 45.4207C82.5386 45.0323 82.3274 44.478 82.3274 43.7615V37.4263H82.3312Z" fill="white"/>
<path d="M95.6199 45.7904H94.5188C94.417 45.4133 94.3491 45.0701 94.3114 44.7684C94.2737 44.463 94.2586 44.15 94.2586 43.8333C94.2586 43.2412 94.1304 42.8113 93.874 42.5436C93.6176 42.2721 93.2669 42.1363 92.8219 42.1363H91.2381V45.7941H90.3142V37.4302H92.5089C93.561 37.4302 94.2813 37.6263 94.6659 38.0222C95.0543 38.4144 95.2504 38.9612 95.2504 39.6626C95.2504 40.824 94.7074 41.4915 93.6176 41.665C94.187 41.7366 94.5754 41.895 94.779 42.1326C94.9864 42.3701 95.0996 42.7208 95.1146 43.1884C95.1297 43.607 95.1901 44.2066 95.2956 44.9947C95.3598 45.3718 95.4729 45.5717 95.6275 45.5943V45.7904H95.6199ZM94.2888 39.7569C94.2888 38.7613 93.7043 38.2636 92.5353 38.2636H91.2343V41.2916H92.6899C93.7571 41.2916 94.2888 40.7826 94.2888 39.7569Z" fill="white"/>
<path d="M97.3999 45.7902L99.753 37.4263H100.982L103.335 45.7902H102.306L101.665 43.3957H99.029L98.4294 45.7902H97.3999ZM99.2477 42.5548H101.435L100.341 38.0447L99.2477 42.5548Z" fill="white"/>
<path d="M105.454 37.4263H106.974L109.636 45.0059V37.4263H110.56V45.7902H109.041L106.378 38.1805V45.7902H105.451V37.4263H105.454Z" fill="white"/>
<path d="M117.212 42.7848H118.166L118.08 43.7803C118.016 44.444 117.774 44.9832 117.356 45.3905C116.941 45.8015 116.405 46.0051 115.745 46.0051C114.822 46.0051 114.15 45.6808 113.735 45.0322C113.324 44.3799 113.121 43.4183 113.121 42.1512V41.5366C113.121 40.0734 113.336 38.9874 113.762 38.2747C114.192 37.562 114.855 37.2075 115.761 37.2075C116.488 37.2075 117.069 37.4376 117.51 37.8938C117.948 38.3501 118.17 38.9422 118.17 39.67V39.9113H117.216C117.171 38.6707 116.669 38.0484 115.708 38.0484C115.191 38.0484 114.791 38.3011 114.505 38.8064C114.218 39.3117 114.075 40.3487 114.075 41.9137C114.075 42.9922 114.203 43.8067 114.46 44.3535C114.716 44.8965 115.131 45.1718 115.696 45.1718C116.545 45.1718 117.031 44.591 117.152 43.4334L117.212 42.7848Z" fill="white"/>
<path d="M120.663 45.7902V37.4263H124.811V38.2634H121.587V41.0275H124.607V41.8647H121.587V44.9455H124.837V45.7827H120.663V45.7902Z" fill="white"/>
<path fill-rule="evenodd" clip-rule="evenodd" d="M37.8115 17.3232C37.6568 17.8549 37.4721 18.2735 37.2722 18.5903C37.0648 18.892 36.8272 19.0994 36.552 19.22C36.2955 19.3369 35.9788 19.3973 35.6054 19.3973C34.6099 19.3973 33.8708 18.9372 33.3881 18.0133C33.1619 17.557 32.9959 17.014 32.8941 16.3805C32.7961 15.7357 32.7433 14.9023 32.7433 13.8879C32.7433 11.8629 32.9846 10.3809 33.4522 9.44572C33.9311 8.51053 34.6703 8.0467 35.6696 8.0467C36.0165 8.04293 36.2955 8.0844 36.5256 8.16737C36.7518 8.25033 36.9554 8.40871 37.1327 8.64251C37.3099 8.87631 37.4796 9.2006 37.638 9.62672C37.8077 10.0453 37.9925 10.5996 38.1885 11.2973C38.2036 11.3425 38.2187 11.3915 38.23 11.4556C38.2564 11.5122 38.279 11.5838 38.2979 11.6668H38.7089V8.36346C37.77 7.88832 36.8348 7.64697 35.892 7.64697C35.1039 7.64697 34.395 7.79404 33.7614 8.0844C33.1279 8.36345 32.5849 8.77449 32.1324 9.31374C31.6837 9.84921 31.3254 10.4978 31.0803 11.2596C30.8427 12.0213 30.7258 12.8735 30.7258 13.8087C30.7258 14.7213 30.8427 15.5434 31.0803 16.2787C31.3254 17.0178 31.6761 17.6475 32.1135 18.1755C32.5661 18.6846 33.1015 19.0918 33.7237 19.3784C34.361 19.6612 35.0624 19.8008 35.8392 19.8008C36.8084 19.8008 37.7775 19.5783 38.7391 19.122V15.2945H38.2979C38.1357 16.109 37.9698 16.7915 37.8115 17.3232ZM46.0736 13.5561C46.0736 12.6397 45.836 11.9572 45.3571 11.5047C44.9008 11.0371 44.2145 10.7995 43.3133 10.7995C42.3592 10.7995 41.458 11.0371 40.6208 11.5047V14.182H41.062C41.1865 13.7748 41.2996 13.4203 41.3976 13.1186C41.5107 12.7981 41.6239 12.5228 41.7408 12.2777C41.9293 11.8403 42.1179 11.5537 42.314 11.4142C42.5176 11.2746 42.8155 11.2068 43.2152 11.2068C44.1806 11.2068 44.667 11.8327 44.667 13.0809L44.6708 14.3102C44.4559 14.4008 44.2635 14.4837 44.0901 14.5591C43.9355 14.6232 43.7771 14.6873 43.6187 14.7477C43.4603 14.8005 43.2944 14.8457 43.1096 14.891C42.9437 14.9325 42.7363 14.9664 42.5025 15.0192C41.9784 15.1323 41.5899 15.2492 41.3147 15.351C41.0582 15.4566 40.8282 15.5886 40.6208 15.7545C40.3757 15.9544 40.1796 16.2146 40.0438 16.5276C39.9081 16.8443 39.8402 17.1762 39.8402 17.5118C39.8402 18.2019 40.0476 18.7562 40.4662 19.1823C40.8923 19.6009 41.458 19.8083 42.1405 19.8083C43.3887 19.8083 44.2221 19.2276 44.667 18.0435L44.6708 19.5858H46.873V19.1823H46.0736V13.5561ZM44.6708 15.8865C44.6708 16.9047 44.4823 17.7154 44.1127 18.3263C43.7356 18.9221 43.2341 19.22 42.6043 19.22C41.8124 19.22 41.4165 18.6167 41.4165 17.4364C41.4165 16.8255 41.5221 16.373 41.7408 16.0826C41.9519 15.7922 42.3328 15.5697 42.8909 15.4151C43.1247 15.3473 43.3246 15.2832 43.4867 15.2454C43.6376 15.1964 43.7809 15.1474 43.9091 15.0984C44.0448 15.0531 44.1693 15.0003 44.2824 14.9589C44.4031 14.9136 44.5351 14.8533 44.6708 14.7816V15.8865ZM54.3885 12.7453C54.3885 12.1156 54.2 11.6366 53.8455 11.3048C53.4835 10.9654 52.9443 10.7957 52.2353 10.7957C51.7036 10.7957 51.27 10.9239 50.9306 11.1841C50.5987 11.4406 50.3084 11.8629 50.0708 12.4436V11.022H47.8686V11.433H48.6605V19.1672H47.8686V19.5707H51.0852V19.1672H50.0708V14.1783C50.0708 13.3373 50.233 12.6586 50.5573 12.1495C50.8891 11.6366 51.319 11.3764 51.8658 11.3764C52.2316 11.3764 52.5068 11.5047 52.6954 11.7611C52.8877 12.0062 52.982 12.3682 52.982 12.8471V19.171H51.9525V19.5745H55.1691V19.171H54.3885V12.7453ZM62.2434 13.5561C62.2434 12.6397 62.0021 11.9572 61.5307 11.5047C61.0669 11.0371 60.3806 10.7995 59.4831 10.7995C58.5177 10.7995 57.6203 11.0371 56.7793 11.5047V14.182H57.2281C57.345 13.7748 57.4581 13.4203 57.5599 13.1186C57.6768 12.7981 57.7937 12.5228 57.9068 12.2777C58.0954 11.8403 58.2877 11.5537 58.48 11.4142C58.6837 11.2746 58.9853 11.2068 59.3737 11.2068C60.3429 11.2068 60.8369 11.8327 60.8369 13.0809V14.3102C60.6219 14.4008 60.4296 14.4837 60.2561 14.5591C60.0978 14.6232 59.9432 14.6873 59.7848 14.7477C59.6264 14.8005 59.4529 14.8457 59.2719 14.891C59.106 14.9325 58.9024 14.9664 58.6648 15.0192C58.1406 15.1323 57.7447 15.2492 57.477 15.351C57.2205 15.4566 56.9867 15.5886 56.7793 15.7545C56.5304 15.9544 56.3419 16.2146 56.2099 16.5276C56.0779 16.8443 56.0063 17.1762 56.0063 17.5118C56.0063 18.2019 56.2137 18.7562 56.6323 19.1823C57.0622 19.6009 57.6165 19.8083 58.3066 19.8083C59.551 19.8083 60.3919 19.2276 60.8369 18.0435V19.5858H63.0353V19.1823H62.2434V13.5561ZM60.8407 15.8865C60.8407 16.9047 60.6521 17.7154 60.2788 18.3263C59.9054 18.9221 59.4039 19.22 58.7704 19.22C57.9823 19.22 57.5863 18.6167 57.5863 17.4364C57.5863 16.8255 57.6919 16.373 57.9106 16.0826C58.1218 15.7922 58.5027 15.5697 59.057 15.4151C59.2983 15.3473 59.4944 15.2832 59.6528 15.2454C59.8074 15.1964 59.9507 15.1474 60.0789 15.0984C60.2109 15.0531 60.3316 15.0003 60.4485 14.9589C60.5691 14.9136 60.7011 14.8533 60.8369 14.7816V15.8865H60.8407ZM68.2883 10.7957C67.8207 10.7957 67.4323 10.9239 67.1117 11.1841C66.8101 11.433 66.5159 11.8478 66.2293 12.4436V11.022H64.0346V11.433H64.8265V19.1672H64.0346V19.5707H67.4549V19.1672H66.3349V15.0758C66.3349 14.7137 66.3425 14.397 66.3538 14.1292C66.3764 13.8577 66.4028 13.6202 66.4367 13.4165C66.4745 13.1865 66.5197 12.9904 66.5725 12.8132C66.6291 12.6359 66.6969 12.4625 66.7799 12.2853C66.8893 12.0515 67.0363 11.8591 67.2173 11.6894C67.3946 11.5122 67.5529 11.433 67.6925 11.433C67.7603 11.433 67.8207 11.4406 67.8584 11.4594C67.9074 11.4707 67.9451 11.516 67.9753 11.5876C68.0281 11.6404 68.0658 11.7347 68.111 11.8478C68.1638 11.9647 68.2317 12.1231 68.2958 12.323C68.4203 12.6397 68.5258 12.9489 68.6013 13.2544C68.6918 13.5598 68.786 13.9143 68.8728 14.3253L69.3328 14.3216V11.1087C69.1367 10.9918 68.9671 10.9089 68.8049 10.8636C68.6503 10.8221 68.4806 10.7957 68.2883 10.7957ZM76.2261 13.5561C76.2261 12.6397 75.9848 11.9572 75.5134 11.5047C75.0496 11.0371 74.3671 10.7995 73.4658 10.7995C72.5042 10.7995 71.6029 11.0371 70.7658 11.5047V14.182H71.207C71.339 13.7748 71.4521 13.4203 71.5464 13.1186C71.6633 12.7981 71.7726 12.5228 71.8858 12.2777C72.0781 11.8403 72.2742 11.5537 72.4627 11.4142C72.6663 11.2746 72.968 11.2068 73.364 11.2068C74.3331 11.2068 74.8233 11.8327 74.8233 13.0809V14.3102C74.6046 14.4008 74.4085 14.4837 74.2426 14.5591C74.0805 14.6232 73.9259 14.6873 73.7675 14.7477C73.6129 14.8005 73.4432 14.8457 73.2622 14.891C73.0925 14.9325 72.8888 14.9664 72.6513 15.0192C72.1309 15.1323 71.7349 15.2492 71.4596 15.351C71.207 15.4566 70.9732 15.5886 70.7658 15.7545C70.5169 15.9544 70.3246 16.2146 70.1964 16.5276C70.0531 16.8443 69.9927 17.1762 69.9927 17.5118C69.9927 18.2019 70.2001 18.7562 70.615 19.1823C71.0448 19.6009 71.6029 19.8083 72.293 19.8083C73.5374 19.8083 74.3746 19.2276 74.8196 18.0435V19.5858H77.0218V19.1823H76.2261V13.5561ZM74.8233 15.8865C74.8233 16.9047 74.6348 17.7154 74.2652 18.3263C73.8881 18.9221 73.3904 19.22 72.7531 19.22C71.965 19.22 71.569 18.6167 71.569 17.4364C71.569 16.8255 71.6708 16.373 71.8858 16.0826C72.1007 15.7922 72.4853 15.5697 73.0397 15.4151C73.2772 15.3473 73.4733 15.2832 73.6279 15.2454C73.7863 15.1964 73.9258 15.1474 74.0541 15.0984C74.1936 15.0531 74.318 15.0003 74.4274 14.9589C74.5518 14.9136 74.6838 14.8533 74.8196 14.7816V15.8865H74.8233Z" fill="white"/>
<path fill-rule="evenodd" clip-rule="evenodd" d="M19.0924 0.629379L27.5393 16.754C28.5537 18.4924 27.4979 20.2798 25.5709 19.9668C24.9676 19.865 21.0495 19.3144 16.0907 18.6206L17.5049 16.6484L24.2171 17.4101C24.7752 17.4742 25.0317 17.3083 24.7111 16.6823C24.7111 16.6823 18.3948 3.50662 18.3307 3.35578C18.1195 2.94475 17.8819 3.07672 17.6972 3.44251C17.6972 3.44251 11.4826 15.1174 11.4034 15.2682C11.1772 15.7245 11.2639 15.9508 11.9276 16.0111L14.3674 16.2864L12.9646 18.0889L9.77817 17.5647C8.9825 17.4629 8.7223 16.9387 9.15973 16.0941C9.48781 15.4455 16.8977 1.44013 16.8977 1.44013C17.0448 1.17239 17.1655 0.968762 17.3163 0.697254C17.7575 -0.105959 18.5569 -0.324671 19.0924 0.629379Z" fill="white"/>
<path fill-rule="evenodd" clip-rule="evenodd" d="M0.769424 13.002L11.8523 10.9732L10.9095 12.7531L3.25825 14.088C2.86985 14.171 2.90378 14.3558 3.14889 14.5255C3.14889 14.5255 9.81971 19.307 10.4721 19.7445C10.9962 20.1103 11.2715 20.2573 11.7052 19.6766C11.7052 19.6766 17.124 12.7871 17.4106 12.327C17.8217 11.75 18.0027 11.52 17.3428 11.6482L13.5831 12.2931L14.5485 10.4906L19.594 9.54028C20.7442 9.33665 21.2004 10.17 20.6386 11.0487C20.1559 11.7651 12.1577 22.9196 12.1577 22.9196C11.6373 23.7002 11.2489 23.67 10.6418 23.1195C9.89136 22.4746 0.430041 14.3445 0.430041 14.3445C-0.192166 13.8203 0.000149809 13.1491 0.769424 13.002Z" fill="white"/>
<path d="M126.06 15.9019H122.149V19.7596H120.188V10.7319H122.149V14.4275H126.06V10.7319H128.02V19.7596H126.06V15.9019Z" fill="white"/>
<path d="M132.712 19.9219C130.762 19.9219 129.163 19.1488 129.129 16.9881H131.09C131.116 17.9497 131.678 18.5229 132.753 18.5229C133.552 18.5229 134.45 18.1231 134.45 17.2256C134.45 16.528 133.839 16.3018 132.825 16.0152L132.176 15.8266C130.754 15.4156 129.34 14.865 129.34 13.2435C129.34 11.2336 131.214 10.5586 132.923 10.5586C134.684 10.5586 136.196 11.1695 136.207 13.1681H134.246C134.171 12.3423 133.696 11.8709 132.772 11.8709C132.048 11.8709 131.324 12.2593 131.324 13.0587C131.324 13.7224 131.923 13.9185 133.198 14.3182L133.948 14.5558C135.498 15.0423 136.471 15.5777 136.471 17.0786C136.471 19.1375 134.484 19.9219 132.712 19.9219Z" fill="white"/>
<path d="M137.576 10.7319H140.71C141.698 10.7319 142.097 10.7583 142.482 10.8451C143.579 11.0939 144.405 11.8067 144.405 13.0171C144.405 14.1786 143.67 14.7782 142.606 15.0534C143.832 15.2797 144.73 15.9019 144.73 17.2406C144.73 19.2882 142.705 19.7634 141.121 19.7634H137.572V10.7319H137.576ZM140.721 14.4916C141.585 14.4916 142.456 14.3181 142.456 13.266C142.456 12.3308 141.63 12.0782 140.845 12.0782H139.473V14.4878H140.721V14.4916ZM140.91 18.4134C141.822 18.4134 142.72 18.2022 142.72 17.1011C142.72 16.0263 141.947 15.7775 141.023 15.7775H139.473V18.4134H140.91Z" fill="white"/>
<path d="M149.839 19.9217C146.928 19.9217 145.62 18.0626 145.62 15.3136C145.62 12.591 147.068 10.5547 149.941 10.5547C151.74 10.5547 153.49 11.3541 153.539 13.4018H151.514C151.412 12.5043 150.816 12.0291 149.941 12.0291C148.18 12.0291 147.645 13.9259 147.645 15.3777C147.645 16.8145 148.18 18.4888 149.881 18.4888C150.767 18.4888 151.416 18.0136 151.555 17.1011H153.591C153.361 19.1487 151.713 19.9217 149.839 19.9217Z" fill="white"/>
<path d="M108.51 6.76465H91.5591V23.7151H108.51V6.76465Z" fill="#323232"/>
<path d="M108.509 23.7151L116.986 15.2418L108.509 6.76465V23.7151Z" fill="white"/>
<path d="M91.5589 23.7151L83.0818 15.2418L91.5589 6.76465V23.7151Z" fill="white"/>
<path d="M108.51 6.76465L100.032 15.2418L91.5591 6.76465H108.51Z" fill="white"/>
<path d="M91.5591 23.715L100.032 15.2417L108.51 23.715H91.5591Z" fill="white"/>
<path d="M102.389 28.9004H51.1943V29.9412H102.389V28.9004Z" fill="white"/>
<path d="M153.587 28.9004H102.393V29.9412H153.587V28.9004Z" fill="white"/>
</svg>
