<svg width="154" height="47" viewBox="0 0 154 47" fill="none" xmlns="http://www.w3.org/2000/svg">
<path d="M51.1944 28.9002H0V29.941H51.1944V28.9002Z" fill="#00ADEF"/>
<path d="M35.3414 37.4264H36.2691V44.9494H39.6667V45.7866H35.3452V37.4264H35.3414Z" fill="white"/>
<path d="M42.2046 37.4264H43.1285V45.7903H42.2046V37.4264Z" fill="white"/>
<path d="M46.1414 45.7903V37.4264H50.0292V38.2635H47.069V40.9861H49.8143V41.8233H47.069V45.7866H46.1414V45.7903Z" fill="white"/>
<path d="M52.2051 45.7903V37.4264H56.3531V38.2635H53.129V41.0276H56.1495V41.8648H53.129V44.9456H56.3795V45.7828H52.2051V45.7903Z" fill="white"/>
<path d="M63.0768 37.4264H64.0007V45.7903H63.0768V37.4264Z" fill="white"/>
<path d="M67.0438 37.4264H68.5635L71.2258 45.006V37.4264H72.1497V45.7903H70.63L67.9677 38.1806V45.7903H67.04V37.4264H67.0438Z" fill="white"/>
<path d="M75.6792 43.1318V43.5466C75.6792 44.1273 75.8075 44.5421 76.0601 44.7948C76.3128 45.0437 76.7087 45.1719 77.2404 45.1719C77.7646 45.1719 78.1643 45.0361 78.4283 44.7684C78.6922 44.4969 78.8242 44.1349 78.8242 43.6786C78.8242 43.2562 78.7601 42.9508 78.6357 42.7509C78.5075 42.5549 78.2925 42.3965 77.9946 42.2758L76.2675 41.6046C75.6717 41.367 75.2795 41.0804 75.091 40.7448C74.9062 40.4092 74.8119 39.9944 74.8119 39.5041C74.8119 38.8367 75.0269 38.2861 75.453 37.8562C75.8867 37.4226 76.441 37.2076 77.1235 37.2076C77.8928 37.2076 78.4811 37.3962 78.8921 37.7808C79.3069 38.1579 79.5143 38.6217 79.5143 39.1761C79.5143 39.3043 79.5105 39.4325 79.4992 39.5607H78.5452C78.5565 39.474 78.5603 39.3759 78.5603 39.2628C78.5527 38.9423 78.432 38.6632 78.1945 38.4181C77.9569 38.173 77.6477 38.0486 77.2593 38.0486C76.7351 38.0486 76.3542 38.173 76.1167 38.4181C75.8791 38.6595 75.7622 39.0366 75.7622 39.5381C75.7622 40.1 76.0375 40.4884 76.588 40.7033L78.1077 41.2878C78.7563 41.5405 79.1975 41.8271 79.4238 42.1438C79.6576 42.4606 79.7707 42.898 79.7707 43.4561C79.7707 44.2216 79.552 44.8401 79.1183 45.3076C78.6809 45.7752 78.0399 46.009 77.1839 46.009C76.4259 46.009 75.8263 45.8054 75.3813 45.3944C74.9401 44.9833 74.7177 44.3423 74.7177 43.4712V43.1318H75.6792Z" fill="white"/>
<path d="M82.3313 37.4264H83.2552V43.441C83.2552 44.5912 83.7831 45.1681 84.839 45.1681C85.8948 45.1681 86.4228 44.6138 86.4228 43.5014V37.4264H87.3467V43.7955C87.3467 44.5195 87.1204 45.0663 86.6717 45.4434C86.2267 45.8167 85.6196 46.0053 84.8578 46.0053C84.0282 46.0053 83.3985 45.813 82.9686 45.4208C82.5387 45.0324 82.3275 44.478 82.3275 43.7616V37.4264H82.3313Z" fill="white"/>
<path d="M95.6201 45.7903H94.519C94.4171 45.4133 94.3493 45.0701 94.3115 44.7684C94.2738 44.463 94.2588 44.15 94.2588 43.8332C94.2588 43.2412 94.1305 42.8113 93.8741 42.5436C93.6177 42.272 93.267 42.1363 92.822 42.1363H91.2382V45.7941H90.3143V37.4301H92.509C93.5611 37.4301 94.2814 37.6262 94.666 38.0222C95.0544 38.4144 95.2505 38.9612 95.2505 39.6626C95.2505 40.824 94.7075 41.4915 93.6177 41.6649C94.1871 41.7366 94.5755 41.895 94.7791 42.1325C94.9865 42.3701 95.0997 42.7208 95.1148 43.1884C95.1298 43.607 95.1902 44.2065 95.2958 44.9947C95.3599 45.3718 95.473 45.5716 95.6276 45.5943V45.7903H95.6201ZM94.2889 39.7568C94.2889 38.7613 93.7044 38.2635 92.5354 38.2635H91.2344V41.2916H92.69C93.7572 41.2916 94.2889 40.7825 94.2889 39.7568Z" fill="white"/>
<path d="M97.4 45.7903L99.7531 37.4264H100.982L103.335 45.7903H102.306L101.665 43.3958H99.0291L98.4295 45.7903H97.4ZM99.2478 42.5549H101.435L100.341 38.0448L99.2478 42.5549Z" fill="white"/>
<path d="M105.455 37.4264H106.974L109.637 45.006V37.4264H110.561V45.7903H109.041L106.379 38.1806V45.7903H105.451V37.4264H105.455Z" fill="white"/>
<path d="M117.213 42.7849H118.167L118.08 43.7804C118.016 44.4441 117.774 44.9833 117.356 45.3906C116.941 45.8016 116.406 46.0053 115.746 46.0053C114.822 46.0053 114.151 45.681 113.736 45.0324C113.325 44.38 113.121 43.4184 113.121 42.1514V41.5367C113.121 40.0736 113.336 38.9875 113.762 38.2748C114.192 37.5621 114.856 37.2076 115.761 37.2076C116.489 37.2076 117.069 37.4377 117.51 37.894C117.948 38.3502 118.17 38.9423 118.17 39.6701V39.9114H117.216C117.171 38.6708 116.67 38.0486 115.708 38.0486C115.191 38.0486 114.792 38.3012 114.505 38.8065C114.218 39.3118 114.075 40.3488 114.075 41.9138C114.075 42.9923 114.203 43.8068 114.46 44.3536C114.716 44.8966 115.131 45.1719 115.697 45.1719C116.545 45.1719 117.032 44.5912 117.152 43.4335L117.213 42.7849Z" fill="white"/>
<path d="M120.663 45.7903V37.4264H124.811V38.2635H121.587V41.0276H124.607V41.8648H121.587V44.9456H124.837V45.7828H120.663V45.7903Z" fill="white"/>
<path fill-rule="evenodd" clip-rule="evenodd" d="M37.8113 17.3234C37.6567 17.8551 37.4719 18.2736 37.2721 18.5904C37.0647 18.8921 36.8271 19.0995 36.5518 19.2201C36.2954 19.337 35.9786 19.3974 35.6053 19.3974C34.6098 19.3974 33.8707 18.9373 33.388 18.0134C33.1617 17.5572 32.9958 17.0141 32.894 16.3806C32.796 15.7358 32.7432 14.9024 32.7432 13.888C32.7432 11.863 32.9845 10.381 33.4521 9.44585C33.931 8.51065 34.6701 8.04683 35.6694 8.04683C36.0164 8.04306 36.2954 8.08453 36.5254 8.16749C36.7517 8.25045 36.9553 8.40883 37.1326 8.64263C37.3098 8.87643 37.4795 9.20073 37.6379 9.62684C37.8075 10.0454 37.9923 10.5998 38.1884 11.2974C38.2035 11.3426 38.2186 11.3917 38.2299 11.4558C38.2563 11.5123 38.2789 11.584 38.2978 11.6669H38.7088V8.36358C37.7699 7.88844 36.8347 7.64709 35.8919 7.64709C35.1038 7.64709 34.3948 7.79416 33.7613 8.08453C33.1278 8.36358 32.5848 8.77461 32.1323 9.31386C31.6835 9.84934 31.3253 10.4979 31.0802 11.2597C30.8426 12.0214 30.7257 12.8736 30.7257 13.8088C30.7257 14.7214 30.8426 15.5435 31.0802 16.2788C31.3253 17.0179 31.676 17.6477 32.1134 18.1756C32.5659 18.6847 33.1014 19.0919 33.7236 19.3785C34.3609 19.6614 35.0623 19.8009 35.8391 19.8009C36.8083 19.8009 37.7774 19.5784 38.739 19.1221V15.2946H38.2978C38.1356 16.1091 37.9697 16.7917 37.8113 17.3234ZM46.0735 13.5562C46.0735 12.6398 45.8359 11.9573 45.357 11.5048C44.9007 11.0372 44.2144 10.7996 43.3131 10.7996C42.3591 10.7996 41.4578 11.0372 40.6207 11.5048V14.1822H41.0619C41.1863 13.7749 41.2995 13.4204 41.3975 13.1187C41.5106 12.7982 41.6238 12.5229 41.7407 12.2778C41.9292 11.8404 42.1178 11.5538 42.3138 11.4143C42.5175 11.2748 42.8154 11.2069 43.2151 11.2069C44.1805 11.2069 44.6669 11.8329 44.6669 13.081L44.6707 14.3104C44.4557 14.4009 44.2634 14.4838 44.09 14.5593C43.9354 14.6234 43.777 14.6875 43.6186 14.7478C43.4602 14.8006 43.2943 14.8458 43.1095 14.8911C42.9436 14.9326 42.7362 14.9665 42.5024 15.0193C41.9782 15.1324 41.5898 15.2493 41.3145 15.3512C41.0581 15.4567 40.8281 15.5887 40.6207 15.7546C40.3756 15.9545 40.1795 16.2147 40.0437 16.5277C39.908 16.8445 39.8401 17.1763 39.8401 17.5119C39.8401 18.202 40.0475 18.7563 40.4661 19.1824C40.8922 19.601 41.4578 19.8084 42.1404 19.8084C43.3886 19.8084 44.2219 19.2277 44.6669 18.0436L44.6707 19.5859H46.8729V19.1824H46.0735V13.5562ZM44.6707 15.8866C44.6707 16.9048 44.4821 17.7155 44.1126 18.3264C43.7355 18.9222 43.234 19.2201 42.6042 19.2201C41.8123 19.2201 41.4164 18.6168 41.4164 17.4365C41.4164 16.8256 41.5219 16.3731 41.7407 16.0827C41.9518 15.7924 42.3327 15.5699 42.8908 15.4153C43.1246 15.3474 43.3245 15.2833 43.4866 15.2456C43.6374 15.1965 43.7807 15.1475 43.909 15.0985C44.0447 15.0532 44.1692 15.0005 44.2823 14.959C44.403 14.9137 44.5349 14.8534 44.6707 14.7817V15.8866ZM54.3884 12.7454C54.3884 12.1157 54.1999 11.6368 53.8454 11.3049C53.4834 10.9655 52.9442 10.7958 52.2352 10.7958C51.7035 10.7958 51.2698 10.9241 50.9305 11.1842C50.5986 11.4407 50.3083 11.863 50.0707 12.4437V11.0221H47.8685V11.4331H48.6604V19.1674H47.8685V19.5709H51.0851V19.1674H50.0707V14.1784C50.0707 13.3375 50.2328 12.6587 50.5571 12.1496C50.889 11.6368 51.3189 11.3766 51.8657 11.3766C52.2314 11.3766 52.5067 11.5048 52.6953 11.7612C52.8876 12.0063 52.9819 12.3683 52.9819 12.8472V19.1711H51.9524V19.5746H55.169V19.1711H54.3884V12.7454ZM62.2433 13.5562C62.2433 12.6398 62.002 11.9573 61.5306 11.5048C61.0668 11.0372 60.3805 10.7996 59.483 10.7996C58.5176 10.7996 57.6201 11.0372 56.7792 11.5048V14.1822H57.228C57.3449 13.7749 57.458 13.4204 57.5598 13.1187C57.6767 12.7982 57.7936 12.5229 57.9067 12.2778C58.0953 11.8404 58.2876 11.5538 58.4799 11.4143C58.6835 11.2748 58.9852 11.2069 59.3736 11.2069C60.3428 11.2069 60.8368 11.8329 60.8368 13.081V14.3104C60.6218 14.4009 60.4295 14.4838 60.256 14.5593C60.0976 14.6234 59.943 14.6875 59.7847 14.7478C59.6263 14.8006 59.4528 14.8458 59.2718 14.8911C59.1059 14.9326 58.9023 14.9665 58.6647 15.0193C58.1405 15.1324 57.7446 15.2493 57.4768 15.3512C57.2204 15.4567 56.9866 15.5887 56.7792 15.7546C56.5303 15.9545 56.3418 16.2147 56.2098 16.5277C56.0778 16.8445 56.0062 17.1763 56.0062 17.5119C56.0062 18.202 56.2136 18.7563 56.6321 19.1824C57.062 19.601 57.6164 19.8084 58.3065 19.8084C59.5509 19.8084 60.3918 19.2277 60.8368 18.0436V19.5859H63.0352V19.1824H62.2433V13.5562ZM60.8405 15.8866C60.8405 16.9048 60.652 17.7155 60.2787 18.3264C59.9053 18.9222 59.4038 19.2201 58.7703 19.2201C57.9821 19.2201 57.5862 18.6168 57.5862 17.4365C57.5862 16.8256 57.6918 16.3731 57.9105 16.0827C58.1217 15.7924 58.5025 15.5699 59.0569 15.4153C59.2982 15.3474 59.4943 15.2833 59.6527 15.2456C59.8073 15.1965 59.9506 15.1475 60.0788 15.0985C60.2108 15.0532 60.3314 15.0005 60.4483 14.959C60.569 14.9137 60.701 14.8534 60.8368 14.7817V15.8866H60.8405ZM68.2882 10.7958C67.8206 10.7958 67.4321 10.9241 67.1116 11.1842C66.8099 11.4331 66.5158 11.8479 66.2292 12.4437V11.0221H64.0345V11.4331H64.8264V19.1674H64.0345V19.5709H67.4548V19.1674H66.3348V15.0759C66.3348 14.7139 66.3423 14.3971 66.3537 14.1294C66.3763 13.8579 66.4027 13.6203 66.4366 13.4167C66.4743 13.1866 66.5196 12.9905 66.5724 12.8133C66.6289 12.6361 66.6968 12.4626 66.7798 12.2854C66.8891 12.0516 67.0362 11.8592 67.2172 11.6896C67.3944 11.5123 67.5528 11.4331 67.6923 11.4331C67.7602 11.4331 67.8206 11.4407 67.8583 11.4595C67.9073 11.4708 67.945 11.5161 67.9752 11.5877C68.028 11.6405 68.0657 11.7348 68.1109 11.8479C68.1637 11.9648 68.2316 12.1232 68.2957 12.3231C68.4201 12.6398 68.5257 12.9491 68.6011 13.2545C68.6916 13.56 68.7859 13.9144 68.8727 14.3255L69.3327 14.3217V11.1088C69.1366 10.9919 68.9669 10.909 68.8048 10.8637C68.6502 10.8222 68.4805 10.7958 68.2882 10.7958ZM76.226 13.5562C76.226 12.6398 75.9847 11.9573 75.5133 11.5048C75.0495 11.0372 74.3669 10.7996 73.4657 10.7996C72.5041 10.7996 71.6028 11.0372 70.7657 11.5048V14.1822H71.2069C71.3389 13.7749 71.452 13.4204 71.5463 13.1187C71.6632 12.7982 71.7725 12.5229 71.8856 12.2778C72.078 11.8404 72.274 11.5538 72.4626 11.4143C72.6662 11.2748 72.9679 11.2069 73.3639 11.2069C74.333 11.2069 74.8232 11.8329 74.8232 13.081V14.3104C74.6045 14.4009 74.4084 14.4838 74.2425 14.5593C74.0803 14.6234 73.9257 14.6875 73.7674 14.7478C73.6127 14.8006 73.443 14.8458 73.262 14.8911C73.0923 14.9326 72.8887 14.9665 72.6511 15.0193C72.1308 15.1324 71.7348 15.2493 71.4595 15.3512C71.2069 15.4567 70.9731 15.5887 70.7657 15.7546C70.5168 15.9545 70.3245 16.2147 70.1963 16.5277C70.053 16.8445 69.9926 17.1763 69.9926 17.5119C69.9926 18.202 70.2 18.7563 70.6148 19.1824C71.0447 19.601 71.6028 19.8084 72.2929 19.8084C73.5373 19.8084 74.3745 19.2277 74.8194 18.0436V19.5859H77.0217V19.1824H76.226V13.5562ZM74.8232 15.8866C74.8232 16.9048 74.6347 17.7155 74.2651 18.3264C73.888 18.9222 73.3903 19.2201 72.753 19.2201C71.9648 19.2201 71.5689 18.6168 71.5689 17.4365C71.5689 16.8256 71.6707 16.3731 71.8856 16.0827C72.1006 15.7924 72.4852 15.5699 73.0396 15.4153C73.2771 15.3474 73.4732 15.2833 73.6278 15.2456C73.7862 15.1965 73.9257 15.1475 74.0539 15.0985C74.1935 15.0532 74.3179 15.0005 74.4273 14.959C74.5517 14.9137 74.6837 14.8534 74.8194 14.7817V15.8866H74.8232Z" fill="white"/>
<path fill-rule="evenodd" clip-rule="evenodd" d="M19.0924 0.629379L27.5393 16.754C28.5537 18.4924 27.4979 20.2798 25.5709 19.9668C24.9676 19.865 21.0495 19.3144 16.0907 18.6206L17.5049 16.6484L24.2171 17.4101C24.7752 17.4742 25.0317 17.3083 24.7111 16.6823C24.7111 16.6823 18.3948 3.50662 18.3307 3.35578C18.1195 2.94475 17.8819 3.07672 17.6972 3.44251C17.6972 3.44251 11.4826 15.1174 11.4034 15.2682C11.1772 15.7245 11.2639 15.9508 11.9276 16.0111L14.3674 16.2864L12.9646 18.0889L9.77817 17.5647C8.9825 17.4629 8.7223 16.9387 9.15973 16.0941C9.48781 15.4455 16.8977 1.44013 16.8977 1.44013C17.0448 1.17239 17.1655 0.968762 17.3163 0.697254C17.7575 -0.105959 18.5569 -0.324671 19.0924 0.629379Z" fill="white"/>
<path fill-rule="evenodd" clip-rule="evenodd" d="M0.769302 13.0019L11.8521 10.9731L10.9094 12.753L3.25813 14.0879C2.86972 14.1709 2.90366 14.3556 3.14877 14.5253C3.14877 14.5253 9.81959 19.3069 10.472 19.7443C10.9961 20.1101 11.2714 20.2572 11.7051 19.6764C11.7051 19.6764 17.1239 12.7869 17.4105 12.3269C17.8215 11.7499 18.0026 11.5199 17.3426 11.6481L13.583 12.2929L14.5484 10.4904L19.5939 9.54013C20.744 9.33649 21.2003 10.1699 20.6384 11.0485C20.1558 11.765 12.1576 22.9195 12.1576 22.9195C11.6372 23.7 11.2488 23.6699 10.6417 23.1193C9.89124 22.4745 0.429919 14.3443 0.429919 14.3443C-0.192288 13.8202 2.77385e-05 13.1489 0.769302 13.0019Z" fill="white"/>
<path d="M126.059 15.9017H122.149V19.7594H120.188V10.7318H122.149V14.4273H126.059V10.7318H128.02V19.7594H126.059V15.9017Z" fill="white"/>
<path d="M132.711 19.9216C130.762 19.9216 129.163 19.1486 129.129 16.9878H131.09C131.116 17.9494 131.678 18.5226 132.753 18.5226C133.552 18.5226 134.45 18.1229 134.45 17.2254C134.45 16.5277 133.839 16.3015 132.825 16.0149L132.176 15.8263C130.754 15.4153 129.34 14.8648 129.34 13.2432C129.34 11.2333 131.214 10.5583 132.923 10.5583C134.684 10.5583 136.196 11.1692 136.207 13.1678H134.246C134.171 12.342 133.696 11.8706 132.772 11.8706C132.048 11.8706 131.324 12.259 131.324 13.0585C131.324 13.7221 131.923 13.9182 133.198 14.318L133.948 14.5555C135.498 15.042 136.471 15.5775 136.471 17.0783C136.471 19.1372 134.484 19.9216 132.711 19.9216Z" fill="white"/>
<path d="M137.576 10.7318H140.71C141.698 10.7318 142.097 10.7581 142.482 10.8449C143.579 11.0938 144.405 11.8065 144.405 13.0169C144.405 14.1784 143.67 14.778 142.606 15.0533C143.832 15.2795 144.73 15.9017 144.73 17.2404C144.73 19.288 142.705 19.7632 141.121 19.7632H137.572V10.7318H137.576ZM140.721 14.4914C141.585 14.4914 142.456 14.3179 142.456 13.2658C142.456 12.3306 141.63 12.078 140.845 12.078H139.473V14.4876H140.721V14.4914ZM140.91 18.4132C141.822 18.4132 142.72 18.202 142.72 17.1009C142.72 16.0262 141.947 15.7773 141.023 15.7773H139.473V18.4132H140.91Z" fill="white"/>
<path d="M149.839 19.9216C146.928 19.9216 145.619 18.0625 145.619 15.3135C145.619 12.5908 147.067 10.5545 149.941 10.5545C151.74 10.5545 153.489 11.354 153.538 13.4016H151.513C151.412 12.5041 150.816 12.029 149.941 12.029C148.18 12.029 147.644 13.9258 147.644 15.3776C147.644 16.8143 148.18 18.4886 149.881 18.4886C150.767 18.4886 151.415 18.0135 151.555 17.1009H153.591C153.361 19.1485 151.713 19.9216 149.839 19.9216Z" fill="white"/>
<path d="M108.509 6.76468H91.5588V23.7151H108.509V6.76468Z" fill="#323232"/>
<path d="M108.509 23.7151L116.986 15.2418L108.509 6.76468V23.7151Z" fill="white"/>
<path d="M91.5588 23.7151L83.0817 15.2418L91.5588 6.76468V23.7151Z" fill="white"/>
<path d="M108.509 6.76468L100.032 15.2418L91.5588 6.76468H108.509Z" fill="white"/>
<path d="M91.5588 23.7151L100.032 15.2418L108.509 23.7151H91.5588Z" fill="white"/>
<path d="M102.389 28.9002H51.1945V29.941H102.389V28.9002Z" fill="#FFC20E"/>
<path d="M153.587 28.9002H102.393V29.941H153.587V28.9002Z" fill="#DB0011"/>
</svg>
