<svg width="206" height="40" viewBox="0 0 206 40" fill="none" xmlns="http://www.w3.org/2000/svg">
<g clip-path="url(#clip0_14_2004)">
<path d="M2.32845 5.7403V7.95085H2.3874C3.17887 6.78937 4.36089 5.95048 5.71852 5.58673C7.07615 5.22299 8.51924 5.35853 9.78539 5.96872C10.1718 6.17472 10.5129 6.45636 10.7882 6.79688C11.0635 7.13741 11.2675 7.52986 11.388 7.95085C11.8716 7.15309 12.5598 6.49924 13.3812 6.05714C14.2193 5.60816 15.1569 5.37755 16.1076 5.3866C16.7994 5.37995 17.4892 5.46292 18.1597 5.63345C18.7319 5.78007 19.2675 6.04349 19.7329 6.40715C20.1789 6.76728 20.5294 7.23164 20.7534 7.75926C21.0127 8.39235 21.1381 9.07223 21.1219 9.75614V20.8089H18.646V10.9351C18.6489 10.4953 18.6106 10.0562 18.5318 9.6235C18.4639 9.24234 18.3143 8.8804 18.0934 8.56244C17.8659 8.24982 17.5595 8.00318 17.2055 7.84769C16.7383 7.65702 16.236 7.56785 15.7318 7.5861C15.2052 7.55711 14.6783 7.63485 14.1825 7.81466C13.6868 7.99447 13.2325 8.27264 12.847 8.63244C12.4914 9.00352 12.2152 9.4432 12.0353 9.92463C11.8554 10.4061 11.7756 10.9191 11.8007 11.4325V20.8089H9.32118V10.9351C9.32473 10.4846 9.28027 10.0351 9.18854 9.59403C9.11068 9.21337 8.95652 8.85243 8.73538 8.53296C8.51731 8.22676 8.22077 7.98495 7.87695 7.83295C7.4393 7.65304 6.96822 7.56886 6.49535 7.5861C5.8536 7.56926 5.21858 7.72039 4.65322 8.02453C3.73619 8.5248 3.03961 9.35018 2.70056 10.3382C2.56952 10.6927 2.49614 11.0659 2.48319 11.4435V20.82H0V5.7403H2.32845Z" fill="#284797"/>
<path d="M35.6264 21.1181C35.0658 21.1465 34.5166 20.9533 34.0974 20.5802C33.7167 20.2191 33.5276 19.6321 33.53 18.8191C32.9002 19.5968 32.0841 20.2026 31.1574 20.5802C30.2183 20.9462 29.2178 21.1288 28.2099 21.1181C27.5625 21.123 26.9168 21.05 26.2868 20.9007C25.7133 20.7643 25.1732 20.5137 24.6988 20.1639C24.2401 19.8195 23.8711 19.3696 23.623 18.8523C23.3456 18.2448 23.2108 17.5819 23.2288 16.9143C23.2011 16.189 23.3516 15.468 23.6673 14.8143C23.9425 14.2902 24.3361 13.8373 24.8167 13.4917C25.3129 13.143 25.8649 12.8814 26.4489 12.718C27.0605 12.5448 27.6868 12.3974 28.3278 12.2832C28.9689 12.169 29.6542 12.0438 30.2621 11.9774C30.8077 11.9207 31.3483 11.8234 31.8795 11.6864C32.2848 11.5877 32.6626 11.3988 32.9847 11.1337C33.1262 10.9966 33.236 10.8303 33.3066 10.6465C33.3773 10.4626 33.407 10.2655 33.3937 10.069C33.4143 9.612 33.3085 9.15815 33.0879 8.7574C32.8967 8.4402 32.6246 8.17953 32.2995 8.00212C31.9698 7.82685 31.6119 7.71088 31.2421 7.65949C30.8506 7.60118 30.4553 7.57163 30.0594 7.57107C29.1492 7.53843 28.2462 7.74417 27.4399 8.16792C26.7399 8.56582 26.3604 9.31864 26.3015 10.4264H23.8257C23.8361 9.60568 24.0366 8.79856 24.4115 8.06844C24.7442 7.44278 25.2232 6.90685 25.8078 6.50631C26.4178 6.09761 27.0988 5.80648 27.8157 5.64789C28.6004 5.47122 29.4025 5.38346 30.2068 5.3863C30.8836 5.38622 31.5595 5.43424 32.2295 5.52999C32.867 5.61837 33.4834 5.82053 34.0495 6.12684C34.5915 6.42698 35.0441 6.8656 35.3611 7.39791C35.7169 8.04804 35.8877 8.78331 35.8548 9.52372V17.2607C35.8423 17.6905 35.8769 18.1205 35.9579 18.5428C36.0279 18.8117 36.2564 18.9481 36.6432 18.9481C36.9009 18.9399 37.1558 18.8914 37.3985 18.8044V20.7239C36.8497 21.0021 36.2368 21.1292 35.6227 21.0923M32.1558 13.5064C31.651 13.6132 31.1242 13.698 30.5716 13.768C30.0189 13.838 29.4663 13.9154 28.8952 14.0001C28.3744 14.0758 27.8655 14.2182 27.381 14.4238C26.9486 14.6025 26.5683 14.8876 26.2757 15.2527C25.9742 15.6829 25.8263 16.202 25.8557 16.7264C25.8432 17.0875 25.9285 17.4452 26.1026 17.7617C26.2613 18.036 26.4805 18.2703 26.7436 18.447C27.0285 18.627 27.3447 18.752 27.6757 18.8154C28.039 18.8932 28.4095 18.9315 28.781 18.9296C29.4944 18.9474 30.205 18.8338 30.8773 18.5944C31.4035 18.4073 31.8888 18.1209 32.3068 17.7507C32.6519 17.4426 32.9292 17.0663 33.1211 16.6454C33.2857 16.2932 33.3748 15.9104 33.3826 15.5217V12.9869C33.0176 13.2457 32.6 13.4206 32.1595 13.499" fill="#284797"/>
<path d="M41.3966 5.7401V8.12749H41.4519C42.4834 6.30501 44.1143 5.39254 46.3446 5.39009C47.1897 5.36501 48.0317 5.50389 48.8241 5.79905C49.4419 6.04072 49.9909 6.43037 50.423 6.93379C50.8401 7.43679 51.1351 8.02944 51.2851 8.6654C51.4538 9.39003 51.5366 10.132 51.532 10.876V20.7792H49.0562V10.607C49.0765 10.2027 49.0148 9.79842 48.8749 9.41854C48.735 9.03866 48.5197 8.69099 48.2419 8.39644C47.9421 8.11652 47.5888 7.9001 47.2032 7.76018C46.8177 7.62025 46.4078 7.55973 45.9982 7.58223C45.3244 7.57287 44.6556 7.69812 44.0308 7.95065C43.4993 8.16877 43.0262 8.50816 42.6492 8.94172C42.2723 9.3795 41.9889 9.88979 41.8166 10.4412C41.6269 11.0492 41.5336 11.6833 41.5403 12.3202V20.8235H39.0645V5.7401H41.3966Z" fill="#284797"/>
<path d="M54.5273 0H56.9995V3.02846H54.5273V0ZM56.9995 20.7976H54.5273V5.74008H56.9995V20.7976Z" fill="#284797"/>
<path d="M62.5254 5.7401V7.77749H62.5807C62.9775 6.95595 63.6617 6.30841 64.5039 5.95747C65.4158 5.57079 66.3981 5.37758 67.3886 5.39009C68.439 5.36519 69.4808 5.58464 70.4318 6.03115C71.2711 6.43932 72.0077 7.03115 72.5871 7.76275C73.1728 8.51454 73.6126 9.36925 73.884 10.2828C74.1786 11.2651 74.3251 12.2858 74.3187 13.3112C74.3251 14.3357 74.1837 15.3557 73.8987 16.3397C73.6402 17.2476 73.2044 18.0953 72.6166 18.8339C72.0363 19.5497 71.2988 20.1221 70.4613 20.5066C69.5147 20.932 68.4851 21.141 67.4476 21.1182C67.0325 21.1148 66.6184 21.0766 66.2097 21.004C65.7468 20.9255 65.2928 20.8021 64.8539 20.6356C64.4008 20.4562 63.9744 20.2157 63.5865 19.9208C63.1844 19.6193 62.8431 19.2442 62.5807 18.8155H62.5254V26.5525H60.0459V5.7401H62.5254ZM71.4229 11.0859C71.2503 10.4419 70.9633 9.83414 70.5755 9.29172C70.1962 8.76603 69.6974 8.33797 69.1202 8.04276C68.4754 7.71805 67.7604 7.55734 67.0386 7.57485C66.3429 7.54786 65.6517 7.69801 65.0298 8.01119C64.408 8.32437 63.8758 8.79034 63.4833 9.36541C63.109 9.91877 62.8381 10.5354 62.6838 11.1854C62.3447 12.5687 62.3447 14.0133 62.6838 15.3965C62.8424 16.0502 63.1237 16.6678 63.5128 17.2166C63.8996 17.7472 64.404 18.1809 64.9865 18.4839C65.6641 18.8213 66.4146 18.9858 67.1713 18.9629C67.9156 18.9878 68.6536 18.8176 69.3118 18.4692C69.8713 18.1497 70.3453 17.6998 70.6934 17.1576C71.0544 16.5858 71.3113 15.9547 71.4524 15.2934C71.608 14.5855 71.6858 13.8628 71.6845 13.1381C71.6852 12.4447 71.5922 11.7544 71.4082 11.0859" fill="#284797"/>
<path d="M88.0017 21.1181C87.4412 21.147 86.8918 20.9537 86.4728 20.5802C86.0921 20.2192 85.9029 19.6321 85.9054 18.8192C85.2735 19.5961 84.4563 20.2017 83.5291 20.5802C82.5969 20.9436 81.6042 21.1261 80.6038 21.1181C79.9563 21.1233 79.3106 21.0503 78.6806 20.9008C78.1068 20.7652 77.5666 20.5145 77.0927 20.1639C76.6339 19.8195 76.2649 19.3696 76.0168 18.8523C75.7394 18.2448 75.6046 17.582 75.6226 16.9144C75.5939 16.1894 75.7432 15.4684 76.0574 14.8144C76.3341 14.2901 76.7288 13.8372 77.2105 13.4917C77.7054 13.1431 78.2561 12.8815 78.839 12.718C79.4506 12.5449 80.0769 12.3975 80.718 12.2833C81.359 12.1691 82.0443 12.0438 82.6559 11.9775C83.2014 11.92 83.742 11.8227 84.2733 11.6864C84.6788 11.5884 85.0568 11.3994 85.3785 11.1338C85.52 10.9967 85.6298 10.8304 85.7004 10.6465C85.7711 10.4626 85.8008 10.2656 85.7875 10.069C85.8081 9.61203 85.7023 9.15819 85.4817 8.75744C85.2928 8.43971 85.0217 8.17879 84.697 8.00216C84.361 7.8217 83.9954 7.70316 83.6175 7.65216C83.2272 7.59383 82.8331 7.56427 82.4385 7.56373C81.5271 7.53114 80.6229 7.73686 79.8153 8.16058C79.1202 8.55848 78.742 9.3113 78.6806 10.419H76.19C76.1992 9.59864 76.3985 8.79155 76.7721 8.06111C77.1067 7.43563 77.5869 6.89984 78.1721 6.49899C78.7821 6.09029 79.4631 5.79914 80.1801 5.64055C80.9635 5.46391 81.7644 5.37616 82.5675 5.37897C83.2455 5.37876 83.9226 5.42679 84.5938 5.52266C85.2312 5.61159 85.8476 5.81372 86.4138 6.11951C86.9551 6.42064 87.4075 6.85903 87.7254 7.39057C88.0813 8.04071 88.252 8.77598 88.2191 9.5164V17.2533C88.2047 17.6832 88.2393 18.1134 88.3223 18.5355C88.3886 18.8044 88.617 18.9407 89.0075 18.9407C89.2653 18.9326 89.5201 18.8841 89.7628 18.797V20.7165C89.2139 20.9944 88.6011 21.1216 87.987 21.085M84.5201 13.4991C84.0154 13.6059 83.4848 13.6907 82.9322 13.7607C82.3796 13.8307 81.8269 13.908 81.2595 13.9928C80.7387 14.0685 80.2298 14.2109 79.7453 14.4165C79.3117 14.5931 78.9311 14.8787 78.64 15.2454C78.3357 15.6743 78.1863 16.194 78.2163 16.7191C78.2056 17.08 78.2908 17.4372 78.4632 17.7544C78.6219 18.0286 78.8412 18.263 79.1043 18.4397C79.3898 18.6184 79.7058 18.7433 80.0364 18.8081C80.3997 18.8855 80.7702 18.9238 81.1416 18.9223C81.8551 18.9398 82.5656 18.8261 83.238 18.587C83.7635 18.3986 84.2485 18.1123 84.6675 17.7433C85.0125 17.4353 85.2898 17.0589 85.4817 16.6381C85.6447 16.2853 85.7337 15.9029 85.7433 15.5144V12.9796C85.3783 13.2384 84.9606 13.4132 84.5201 13.4917" fill="#284797"/>
<path d="M94.0295 0H91.5537V20.7976H94.0295V0Z" fill="#284797"/>
<path d="M99.508 0.00390625V7.95453H99.567C99.7496 7.50615 100.029 7.1036 100.385 6.77558C100.734 6.45447 101.131 6.18859 101.56 5.98714C101.999 5.78511 102.458 5.63311 102.931 5.53398C103.387 5.44016 103.851 5.39202 104.316 5.39029C105.16 5.36485 106.001 5.50375 106.792 5.79925C107.41 6.04146 107.961 6.43097 108.394 6.934C108.809 7.43815 109.103 8.03047 109.253 8.6656C109.423 9.38993 109.506 10.1321 109.5 10.8762V20.7794H107.024V10.6072C107.044 10.2029 106.983 9.79863 106.843 9.41875C106.703 9.03886 106.487 8.69119 106.21 8.39665C105.91 8.11673 105.557 7.9003 105.171 7.76038C104.785 7.62046 104.376 7.55993 103.966 7.58243C103.293 7.57267 102.626 7.69795 102.002 7.95086C101.469 8.1675 100.994 8.50708 100.617 8.94192C100.242 9.38105 99.9589 9.89093 99.7844 10.4414C99.5946 11.0494 99.5014 11.6835 99.508 12.3204V20.8237H97.0322V0.00390625H99.508Z" fill="#05ABA5"/>
<path d="M112.083 10.1835C112.369 9.26067 112.845 8.40753 113.479 7.67819C114.115 6.95809 114.901 6.38593 115.782 6.00186C117.804 5.18623 120.063 5.18623 122.085 6.00186C122.96 6.3891 123.74 6.96095 124.373 7.67819C125.007 8.40825 125.484 9.26109 125.773 10.1835C126.089 11.1869 126.246 12.2337 126.238 13.2856C126.246 14.3328 126.09 15.3748 125.773 16.373C125.48 17.2895 125.004 18.1369 124.373 18.8636C123.742 19.5775 122.96 20.1436 122.085 20.5215C120.059 21.3173 117.807 21.3173 115.782 20.5215C114.9 20.1467 114.114 19.5804 113.479 18.8636C112.848 18.1376 112.373 17.29 112.083 16.373C111.763 15.3754 111.605 14.3331 111.615 13.2856C111.606 12.2333 111.764 11.1863 112.083 10.1835ZM114.603 15.7099C114.812 16.364 115.153 16.9683 115.605 17.4857C116.02 17.9589 116.533 18.3361 117.108 18.591C117.682 18.8413 118.302 18.9705 118.928 18.9705C119.554 18.9705 120.174 18.8413 120.748 18.591C121.322 18.335 121.833 17.958 122.247 17.4857C122.699 16.9676 123.041 16.3636 123.253 15.7099C123.735 14.1233 123.735 12.4296 123.253 10.843C123.037 10.1883 122.694 9.58244 122.244 9.05979C121.832 8.58514 121.32 8.20767 120.744 7.95451C120.17 7.70418 119.551 7.57499 118.924 7.57499C118.298 7.57499 117.678 7.70418 117.104 7.95451C116.527 8.20666 116.014 8.58424 115.601 9.05979C115.152 9.58424 114.811 10.1929 114.599 10.8503C114.113 12.4362 114.113 14.1314 114.599 15.7172" fill="#05ABA5"/>
<path d="M130.327 17.4339C130.551 17.8074 130.867 18.118 131.244 18.3365C131.641 18.5664 132.073 18.7294 132.522 18.8191C133.008 18.9156 133.501 18.9637 133.996 18.9628C134.405 18.9613 134.814 18.9317 135.219 18.8744C135.625 18.8245 136.022 18.7179 136.398 18.5575C136.749 18.4104 137.055 18.1742 137.286 17.8723C137.53 17.5402 137.654 17.1346 137.636 16.7228C137.652 16.4342 137.593 16.1464 137.464 15.8879C137.334 15.6294 137.14 15.4092 136.899 15.2491C136.338 14.886 135.723 14.616 135.076 14.4496C134.339 14.247 133.558 14.0591 132.703 13.897C131.891 13.744 131.096 13.5094 130.33 13.197C129.635 12.919 129.012 12.4855 128.51 11.9296C127.989 11.2908 127.726 10.4796 127.773 9.65639C127.754 8.97163 127.931 8.29561 128.282 7.70741C128.613 7.17203 129.062 6.71859 129.593 6.38108C130.15 6.03242 130.76 5.77613 131.399 5.62212C132.052 5.46082 132.722 5.37795 133.396 5.37527C134.188 5.36998 134.979 5.44279 135.757 5.59265C136.434 5.72325 137.081 5.98077 137.662 6.35161C138.221 6.71596 138.677 7.21685 138.988 7.80688C139.345 8.51869 139.543 9.29914 139.57 10.0948H137.095C137.076 9.66724 136.95 9.25136 136.726 8.88637C136.518 8.5695 136.239 8.3048 135.912 8.11268C135.568 7.91478 135.195 7.77299 134.807 7.69267C134.41 7.60415 134.005 7.55968 133.598 7.56004C133.228 7.56136 132.859 7.59092 132.493 7.64846C132.135 7.69963 131.786 7.80264 131.458 7.95425C131.171 8.08918 130.918 8.28837 130.721 8.53637C130.517 8.80895 130.415 9.14348 130.43 9.48323C130.425 9.68192 130.462 9.87941 130.54 10.0624C130.617 10.2454 130.733 10.4097 130.879 10.5443C131.215 10.848 131.605 11.0855 132.029 11.2443C132.54 11.4411 133.066 11.5975 133.602 11.7122C134.188 11.8375 134.77 11.9701 135.352 12.1027C135.967 12.2377 136.574 12.4037 137.172 12.6001C137.732 12.777 138.262 13.0365 138.745 13.3701C139.198 13.6871 139.575 14.0997 139.85 14.5786C140.15 15.1331 140.296 15.7576 140.274 16.3875C140.305 17.1826 140.108 17.9699 139.707 18.657C139.34 19.2587 138.835 19.764 138.233 20.1307C137.595 20.5094 136.893 20.7702 136.162 20.9007C135.41 21.0456 134.645 21.1183 133.878 21.1181C133.074 21.1228 132.271 21.035 131.487 20.8565C130.77 20.6993 130.089 20.408 129.479 19.9981C128.892 19.5953 128.411 19.0554 128.079 18.4249C127.711 17.6874 127.512 16.8767 127.497 16.0523H129.973C129.974 16.537 130.101 17.0132 130.341 17.4339" fill="#05ABA5"/>
<path d="M144.824 5.74016V7.77755H144.883C145.277 6.95352 145.962 6.30492 146.807 5.95753C147.717 5.57124 148.698 5.37805 149.688 5.39015C150.738 5.36485 151.78 5.58432 152.731 6.0312C153.571 6.4383 154.308 7.03031 154.886 7.76281C155.472 8.5146 155.912 9.36931 156.183 10.2828C156.479 11.2649 156.627 12.2856 156.621 13.3113C156.627 14.3359 156.484 15.3559 156.198 16.3398C155.941 17.2483 155.505 18.0963 154.916 18.834C154.335 19.5498 153.598 20.1222 152.76 20.5067C151.814 20.9326 150.784 21.1415 149.747 21.1182C149.332 21.1147 148.917 21.0765 148.509 21.004C148.047 20.9261 147.594 20.8026 147.157 20.6356C146.702 20.4571 146.274 20.2166 145.886 19.9209C145.484 19.6202 145.143 19.2449 144.883 18.8156H144.824V26.5525H142.349V5.74016H144.824ZM153.722 11.086C153.551 10.4422 153.265 9.83439 152.878 9.29178C152.492 8.765 151.987 8.33702 151.405 8.04282C150.76 7.71768 150.045 7.55694 149.323 7.57491C148.628 7.54716 147.937 7.69699 147.315 8.01027C146.694 8.32354 146.163 8.78994 145.771 9.36547C145.394 9.91788 145.122 10.5348 144.968 11.1855C144.805 11.8636 144.722 12.5586 144.721 13.256C144.72 13.9776 144.808 14.6966 144.983 15.3966C145.143 16.0505 145.425 16.6681 145.816 17.2166C146.201 17.7484 146.706 18.1825 147.289 18.484C147.967 18.8213 148.717 18.9859 149.474 18.963C150.218 18.9884 150.956 18.8182 151.615 18.4693C152.175 18.1509 152.649 17.7007 152.996 17.1577C153.359 16.5866 153.616 15.9552 153.755 15.2934C153.911 14.5856 153.989 13.8629 153.987 13.1381C153.988 12.4448 153.895 11.7545 153.711 11.086" fill="#05ABA5"/>
<path d="M158.905 0H161.377V3.02846H158.905V0ZM161.377 20.7976H158.905V5.74008H161.377V20.7976Z" fill="#05ABA5"/>
<path d="M170.876 5.74005V7.92481H167.873V17.2755C167.861 17.5102 167.88 17.7455 167.928 17.9755C167.968 18.1405 168.067 18.2857 168.205 18.3844C168.374 18.4955 168.57 18.5603 168.772 18.5723C169.088 18.6054 169.405 18.6202 169.723 18.6165H170.876V20.8013H168.982C168.43 20.8098 167.879 20.7666 167.335 20.6723C166.932 20.6089 166.551 20.4427 166.23 20.1897C165.927 19.9289 165.709 19.5839 165.604 19.1986C165.45 18.6498 165.381 18.0809 165.397 17.5112V7.93218H162.818V5.74741H165.397V1.22314H167.873V5.74005H170.876Z" fill="#05ABA5"/>
<path d="M184.478 21.1181C183.918 21.1469 183.368 20.9537 182.949 20.5802C182.571 20.2191 182.382 19.6321 182.382 18.8191C181.75 19.5961 180.933 20.2017 180.006 20.5802C179.073 20.9435 178.081 21.1261 177.08 21.1181C176.433 21.1232 175.787 21.0502 175.157 20.9007C174.583 20.7651 174.043 20.5144 173.569 20.1639C173.11 19.8204 172.74 19.3703 172.493 18.8523C172.214 18.2454 172.079 17.5821 172.099 16.9143C172.07 16.1893 172.22 15.4683 172.534 14.8143C172.811 14.29 173.205 13.8372 173.687 13.4917C174.182 13.1431 174.733 12.8814 175.316 12.718C175.927 12.5448 176.553 12.3974 177.195 12.2832C177.836 12.169 178.521 12.0438 179.132 11.9774C179.678 11.9203 180.219 11.823 180.75 11.6864C181.155 11.5875 181.533 11.3986 181.855 11.1337C181.997 10.9966 182.106 10.8303 182.177 10.6465C182.248 10.4626 182.277 10.2655 182.264 10.069C182.285 9.61199 182.179 9.15815 181.958 8.7574C181.768 8.43941 181.496 8.17851 181.17 8.00212C180.832 7.82343 180.465 7.70734 180.087 7.65948C179.696 7.60115 179.302 7.5716 178.908 7.57106C177.996 7.53846 177.092 7.74419 176.285 8.16791C175.584 8.56581 175.209 9.3174 175.15 10.4264H172.681C172.691 9.60597 172.89 8.79887 173.263 8.06843C173.598 7.44295 174.078 6.90716 174.663 6.50631C175.273 6.09761 175.954 5.80647 176.671 5.64788C177.455 5.47139 178.256 5.38364 179.059 5.38629C179.737 5.38608 180.414 5.4341 181.085 5.52998C181.722 5.61891 182.339 5.82104 182.905 6.12683C183.446 6.42796 183.899 6.86636 184.217 7.3979C184.573 8.04803 184.743 8.7833 184.71 9.52372V17.2607C184.696 17.6906 184.731 18.1207 184.814 18.5428C184.88 18.8117 185.108 18.9481 185.495 18.9481C185.754 18.9403 186.01 18.8918 186.254 18.8044V20.7239C185.705 21.0012 185.092 21.1283 184.478 21.0923M181.011 13.5064C180.507 13.6132 179.976 13.698 179.423 13.768C178.871 13.838 178.318 13.9154 177.747 14.0001C177.226 14.0758 176.717 14.2182 176.233 14.4238C175.8 14.6009 175.419 14.8863 175.128 15.2527C174.823 15.6817 174.674 16.2014 174.704 16.7264C174.693 17.0873 174.778 17.4445 174.951 17.7617C175.11 18.036 175.329 18.2703 175.592 18.447C175.877 18.6257 176.193 18.7506 176.524 18.8154C176.887 18.8928 177.258 18.9311 177.629 18.9296C178.343 18.9471 179.053 18.8334 179.726 18.5944C180.251 18.4059 180.736 18.1196 181.155 17.7507C181.499 17.4416 181.776 17.0655 181.969 16.6454C182.132 16.2926 182.221 15.9102 182.231 15.5217V12.9869C181.866 13.2457 181.448 13.4206 181.008 13.499" fill="#05ABA5"/>
<path d="M190.505 0H188.029V20.7976H190.505V0Z" fill="#05ABA5"/>
<path d="M195.561 17.4338C195.785 17.8105 196.102 18.1237 196.482 18.3438C196.879 18.5749 197.313 18.738 197.764 18.8265C198.249 18.9233 198.743 18.9715 199.238 18.9701C199.647 18.9686 200.056 18.939 200.461 18.8817C200.867 18.8318 201.264 18.7252 201.64 18.5649C201.99 18.4178 202.296 18.1815 202.528 17.8796C202.776 17.5487 202.906 17.1438 202.896 16.7301C202.913 16.4415 202.853 16.1536 202.724 15.895C202.595 15.6364 202.4 15.4162 202.159 15.2564C201.6 14.8933 200.985 14.6233 200.339 14.4569C199.602 14.2543 198.821 14.0664 197.967 13.9043C197.154 13.7518 196.359 13.5173 195.594 13.2043C194.898 12.9273 194.275 12.4936 193.774 11.9369C193.252 11.2981 192.989 10.487 193.037 9.6637C193.018 8.97895 193.194 8.30292 193.545 7.71473C193.876 7.17854 194.325 6.7249 194.857 6.38839C195.414 6.0391 196.023 5.78276 196.662 5.62943C197.316 5.46814 197.986 5.38528 198.659 5.3826C199.45 5.37728 200.24 5.45009 201.017 5.59997C201.696 5.72987 202.343 5.98741 202.926 6.35892C203.483 6.72439 203.94 7.22501 204.252 7.81421C204.607 8.52658 204.805 9.30669 204.834 10.1021H202.358C202.344 9.69757 202.227 9.3033 202.018 8.95651C201.809 8.60972 201.515 8.32184 201.165 8.12C200.821 7.9221 200.448 7.78031 200.059 7.69999C199.662 7.61162 199.257 7.56714 198.851 7.56736C198.481 7.56855 198.111 7.59811 197.745 7.65578C197.387 7.70695 197.039 7.80996 196.71 7.96158C196.416 8.09314 196.157 8.29263 195.955 8.54368C195.75 8.81578 195.646 9.15035 195.66 9.49054C195.655 9.68958 195.693 9.8874 195.771 10.0705C195.849 10.2536 195.966 10.4177 196.113 10.5516C196.449 10.8553 196.839 11.0928 197.263 11.2516C197.774 11.4484 198.3 11.6048 198.836 11.7195C199.418 11.8448 200 11.9774 200.586 12.11C201.201 12.245 201.808 12.411 202.406 12.6074C202.965 12.7837 203.494 13.0433 203.976 13.3774C204.428 13.6947 204.805 14.1072 205.081 14.5859C205.38 15.1405 205.527 15.7649 205.505 16.3948C205.534 17.1903 205.336 17.9776 204.933 18.6643C204.568 19.2666 204.062 19.7721 203.46 20.1381C202.823 20.5167 202.123 20.7775 201.393 20.9081C200.639 21.053 199.873 21.1258 199.105 21.1254C198.302 21.1299 197.501 21.0421 196.718 20.8638C195.999 20.7066 195.317 20.4154 194.706 20.0054C194.119 19.6024 193.64 19.0624 193.31 18.4322C192.939 17.6954 192.74 16.8842 192.728 16.0596H195.192C195.191 16.5445 195.318 17.0212 195.561 17.4412" fill="#05ABA5"/>
<path d="M142.378 31.3237H143.41V38.1949H147.506V39.0644H142.378V31.3237Z" fill="#284797"/>
<path d="M149.474 31.3237H148.446V39.0644H149.474V31.3237Z" fill="#284797"/>
<path d="M151.209 31.3237H156.29V32.1895H152.233V34.6506H155.792V35.5201H152.233V39.0644H151.209V31.3237Z" fill="#284797"/>
<path d="M157.429 31.3237H162.767V32.1895H158.457V34.6506H162.476V35.5201H158.457V38.1949H162.8V39.0644H157.429V31.3237Z" fill="#284797"/>
<path d="M164.097 31.3237H165.301V32.5285C165.301 33.3832 164.933 34.1238 164.111 34.1238V33.5822C164.598 33.5822 164.738 33.0295 164.738 32.5285H164.097V31.3237Z" fill="#284797"/>
<path d="M171.532 33.5931C171.41 32.4878 170.673 32.0089 169.612 32.0089C168.746 32.0089 167.877 32.3257 167.877 33.3315C167.877 34.3373 169.115 34.4368 170.364 34.7094C171.613 34.9821 172.832 35.4242 172.832 36.9421C172.832 38.589 171.218 39.2484 169.807 39.2484C168.076 39.2484 166.609 38.4011 166.609 36.5147H167.586C167.586 37.8153 168.673 38.3826 169.84 38.3826C170.773 38.3826 171.804 38.0916 171.804 36.9753C171.804 35.8589 170.566 35.7263 169.332 35.4537C168.098 35.181 166.849 34.8273 166.849 33.4052C166.849 31.8357 168.249 31.1431 169.656 31.1431C171.24 31.1431 172.442 31.8799 172.504 33.5931H171.532Z" fill="#284797"/>
<path d="M180.359 31.1431C182.82 31.1431 184.065 33.092 184.065 35.1958C184.065 37.2995 182.82 39.2484 180.359 39.2484C177.898 39.2484 176.652 37.2958 176.652 35.1958C176.652 33.0957 177.898 31.1431 180.359 31.1431ZM180.359 38.3826C182.249 38.3826 183.037 36.7542 183.037 35.1958C183.037 33.6373 182.249 32.0089 180.359 32.0089C178.469 32.0089 177.684 33.6373 177.684 35.1958C177.684 36.7542 178.472 38.3826 180.359 38.3826Z" fill="#284797"/>
<path d="M185.311 31.3237H186.405L190.48 37.598H190.505V31.3237H191.478V39.0644H190.351L186.309 32.8527H186.287V39.0644H185.311V31.3237Z" fill="#284797"/>
<path d="M204.878 30.3877H195.266V39.9999H204.878V30.3877Z" fill="#C61C1A"/>
<path d="M199.363 31.7401C199.278 31.7336 199.193 31.7446 199.113 31.7724C199.033 31.8003 198.96 31.8444 198.898 31.902C198.835 31.9596 198.786 32.0294 198.752 32.1071C198.718 32.1849 198.7 32.2687 198.7 32.3536C198.7 32.4384 198.718 32.5223 198.752 32.6C198.786 32.6777 198.835 32.7475 198.898 32.8051C198.96 32.8627 199.033 32.9068 199.113 32.9347C199.193 32.9626 199.278 32.9735 199.363 32.967C199.518 32.955 199.662 32.8852 199.767 32.7715C199.872 32.6577 199.931 32.5085 199.931 32.3536C199.931 32.1986 199.872 32.0494 199.767 31.9357C199.662 31.8219 199.518 31.7521 199.363 31.7401Z" fill="white"/>
<path d="M200.803 31.7398C200.681 31.739 200.561 31.7745 200.46 31.8417C200.358 31.9088 200.279 32.0047 200.231 32.117C200.184 32.2294 200.172 32.3532 200.195 32.4728C200.218 32.5924 200.277 32.7024 200.362 32.7888C200.448 32.8752 200.558 32.9342 200.677 32.9582C200.797 32.9822 200.921 32.9703 201.033 32.9238C201.146 32.8774 201.242 32.7985 201.31 32.6972C201.378 32.596 201.414 32.4769 201.414 32.355C201.413 32.1928 201.349 32.0374 201.234 31.9223C201.12 31.8073 200.965 31.7417 200.803 31.7398Z" fill="white"/>
<path d="M199.363 33.162C199.278 33.1554 199.193 33.1664 199.113 33.1943C199.033 33.2221 198.96 33.2663 198.898 33.3239C198.835 33.3815 198.786 33.4513 198.752 33.529C198.718 33.6067 198.7 33.6906 198.7 33.7754C198.7 33.8602 198.718 33.9441 198.752 34.0218C198.786 34.0995 198.835 34.1694 198.898 34.227C198.96 34.2846 199.033 34.3287 199.113 34.3566C199.193 34.3844 199.278 34.3954 199.363 34.3889C199.518 34.3769 199.662 34.307 199.767 34.1933C199.872 34.0796 199.931 33.9304 199.931 33.7754C199.931 33.6205 199.872 33.4712 199.767 33.3575C199.662 33.2438 199.518 33.174 199.363 33.162Z" fill="white"/>
<path d="M200.803 33.1621C200.681 33.1614 200.561 33.197 200.459 33.2643C200.358 33.3316 200.278 33.4277 200.231 33.5402C200.184 33.6528 200.172 33.7768 200.195 33.8965C200.219 34.0162 200.278 34.1262 200.364 34.2124C200.45 34.2987 200.56 34.3574 200.68 34.381C200.799 34.4046 200.923 34.3921 201.036 34.3451C201.149 34.2981 201.245 34.2187 201.312 34.1169C201.379 34.0152 201.415 33.8957 201.414 33.7737C201.413 33.6118 201.348 33.4568 201.234 33.3423C201.119 33.2278 200.964 33.1631 200.803 33.1621Z" fill="white"/>
<path d="M199.363 34.5805C199.278 34.5739 199.193 34.5849 199.113 34.6127C199.033 34.6406 198.96 34.6847 198.898 34.7423C198.835 34.7999 198.786 34.8698 198.752 34.9475C198.718 35.0252 198.7 35.1091 198.7 35.1939C198.7 35.2787 198.718 35.3626 198.752 35.4403C198.786 35.518 198.835 35.5878 198.898 35.6454C198.96 35.7031 199.033 35.7472 199.113 35.775C199.193 35.8029 199.278 35.8139 199.363 35.8073C199.443 35.8078 199.523 35.7923 199.597 35.7617C199.671 35.7311 199.739 35.686 199.795 35.6291C199.852 35.5721 199.897 35.5045 199.927 35.4301C199.957 35.3557 199.972 35.276 199.971 35.1957C199.971 35.1154 199.956 35.0358 199.926 34.9614C199.896 34.887 199.851 34.8193 199.794 34.7622C199.738 34.705 199.671 34.6596 199.597 34.6284C199.523 34.5972 199.443 34.5809 199.363 34.5805Z" fill="white"/>
<path d="M197.94 34.5806C197.818 34.5798 197.699 34.6153 197.597 34.6825C197.496 34.7496 197.416 34.8455 197.369 34.9578C197.322 35.0702 197.309 35.194 197.333 35.3136C197.356 35.4332 197.414 35.5432 197.5 35.6296C197.586 35.716 197.696 35.775 197.815 35.799C197.935 35.823 198.059 35.8111 198.171 35.7646C198.284 35.7182 198.38 35.6393 198.448 35.538C198.516 35.4368 198.552 35.3177 198.552 35.1958C198.552 35.0333 198.488 34.8774 198.373 34.7621C198.258 34.6468 198.103 34.5816 197.94 34.5806Z" fill="white"/>
<path d="M196.518 34.5806C196.396 34.5813 196.278 34.618 196.177 34.686C196.076 34.7541 195.998 34.8504 195.952 34.9629C195.906 35.0754 195.894 35.199 195.919 35.3181C195.943 35.4372 196.002 35.5465 196.088 35.6322C196.174 35.7179 196.284 35.7761 196.403 35.7995C196.522 35.823 196.646 35.8106 196.758 35.7639C196.87 35.7172 196.966 35.6384 197.033 35.5373C197.101 35.4362 197.137 35.3174 197.137 35.1958C197.135 35.0326 197.069 34.8767 196.953 34.7616C196.837 34.6465 196.681 34.5815 196.518 34.5806Z" fill="white"/>
<path d="M203.622 34.5806C203.5 34.5798 203.381 34.6153 203.279 34.6825C203.177 34.7496 203.098 34.8455 203.051 34.9578C203.004 35.0702 202.991 35.194 203.014 35.3136C203.038 35.4332 203.096 35.5432 203.182 35.6296C203.268 35.716 203.377 35.775 203.497 35.799C203.616 35.823 203.74 35.8111 203.853 35.7646C203.965 35.7182 204.062 35.6393 204.13 35.538C204.197 35.4368 204.233 35.3177 204.233 35.1958C204.233 35.0333 204.169 34.8774 204.055 34.7621C203.94 34.6468 203.784 34.5816 203.622 34.5806Z" fill="white"/>
<path d="M202.192 34.5806C202.07 34.5798 201.951 34.6153 201.849 34.6825C201.748 34.7496 201.668 34.8455 201.621 34.9578C201.574 35.0702 201.561 35.194 201.585 35.3136C201.608 35.4332 201.666 35.5432 201.752 35.6296C201.838 35.716 201.948 35.775 202.067 35.799C202.187 35.823 202.31 35.8111 202.423 35.7646C202.536 35.7182 202.632 35.6393 202.7 35.538C202.768 35.4368 202.804 35.3177 202.804 35.1958C202.803 35.0336 202.738 34.8782 202.624 34.7631C202.509 34.6481 202.354 34.5825 202.192 34.5806Z" fill="white"/>
<path d="M200.803 34.5806C200.681 34.5798 200.561 34.6153 200.46 34.6825C200.358 34.7496 200.279 34.8455 200.231 34.9578C200.184 35.0702 200.172 35.194 200.195 35.3136C200.218 35.4332 200.277 35.5432 200.362 35.6296C200.448 35.716 200.558 35.775 200.677 35.799C200.797 35.823 200.921 35.8111 201.033 35.7646C201.146 35.7182 201.242 35.6393 201.31 35.538C201.378 35.4368 201.414 35.3177 201.414 35.1958C201.413 35.0336 201.349 34.8782 201.234 34.7631C201.12 34.6481 200.965 34.5825 200.803 34.5806Z" fill="white"/>
<path d="M199.363 36.0025C199.241 36.001 199.121 36.036 199.019 36.1028C198.916 36.1697 198.836 36.2655 198.789 36.378C198.741 36.4905 198.728 36.6146 198.751 36.7346C198.775 36.8545 198.833 36.9648 198.919 37.0515C199.005 37.1381 199.115 37.1971 199.235 37.2211C199.355 37.245 199.479 37.2327 199.592 37.1858C199.705 37.1389 199.801 37.0595 199.868 36.9577C199.936 36.8558 199.971 36.7362 199.971 36.6141C199.97 36.4528 199.906 36.2983 199.792 36.184C199.678 36.0696 199.524 36.0044 199.363 36.0025Z" fill="white"/>
<path d="M200.803 36.0025C200.681 36.0017 200.561 36.0373 200.459 36.1046C200.358 36.1719 200.278 36.268 200.231 36.3806C200.184 36.4931 200.172 36.6172 200.195 36.7369C200.219 36.8565 200.278 36.9665 200.364 37.0528C200.45 37.1391 200.56 37.1977 200.68 37.2213C200.799 37.245 200.923 37.2325 201.036 37.1854C201.149 37.1384 201.245 37.059 201.312 36.9572C201.379 36.8555 201.415 36.736 201.414 36.614C201.413 36.4521 201.348 36.2971 201.234 36.1827C201.119 36.0682 200.964 36.0034 200.803 36.0025Z" fill="white"/>
<path d="M199.363 37.4247C199.278 37.4181 199.193 37.4291 199.113 37.457C199.033 37.4848 198.96 37.529 198.898 37.5866C198.835 37.6442 198.786 37.714 198.752 37.7917C198.718 37.8694 198.7 37.9533 198.7 38.0381C198.7 38.1229 198.718 38.2068 198.752 38.2845C198.786 38.3622 198.835 38.4321 198.898 38.4897C198.96 38.5473 199.033 38.5914 199.113 38.6193C199.193 38.6471 199.278 38.6581 199.363 38.6515C199.518 38.6396 199.662 38.5697 199.767 38.456C199.872 38.3423 199.931 38.1931 199.931 38.0381C199.931 37.8832 199.872 37.7339 199.767 37.6202C199.662 37.5065 199.518 37.4367 199.363 37.4247Z" fill="white"/>
<path d="M200.803 37.4248C200.681 37.4241 200.561 37.4596 200.459 37.527C200.358 37.5943 200.278 37.6903 200.231 37.8029C200.184 37.9155 200.172 38.0395 200.195 38.1592C200.219 38.2789 200.278 38.3889 200.364 38.4751C200.45 38.5614 200.56 38.6201 200.68 38.6437C200.799 38.6673 200.923 38.6548 201.036 38.6078C201.149 38.5608 201.245 38.4813 201.312 38.3796C201.379 38.2779 201.415 38.1584 201.414 38.0364C201.413 37.8745 201.348 37.7195 201.234 37.605C201.119 37.4905 200.964 37.4258 200.803 37.4248Z" fill="white"/>
</g>
<defs>
<clipPath id="clip0_14_2004">
<rect width="205.497" height="40" fill="white"/>
</clipPath>
</defs>
</svg>
